/* XPM */
static char *_c65b80ee3c84ddcf4a9bcaebbf5b4f1[] = {
/* columns rows colors chars-per-pixel */
"64 64 154 2 ",
"   c #060704",
".  c #060804",
"X  c #080804",
"o  c #0E0D0B",
"O  c #100E0F",
"+  c #13110E",
"@  c #1F150B",
"#  c #131413",
"$  c #181612",
"%  c #171815",
"&  c #1B1A15",
"*  c #1D1C19",
"=  c #2E1A05",
"-  c #2C1508",
";  c #271808",
":  c #3B1D06",
">  c #211E1B",
",  c #3E2209",
"<  c #202017",
"1  c #2C2214",
"2  c #23221D",
"3  c #2A261D",
"4  c #2D281C",
"5  c #392514",
"6  c #3E2913",
"7  c #242321",
"8  c #292621",
"9  c #2B2A24",
"0  c #2F2D29",
"q  c #302C27",
"w  c #322F2A",
"e  c #333026",
"r  c #3B3123",
"t  c #33322C",
"y  c #3A362C",
"u  c #393732",
"i  c #3D3B34",
"p  c #3E3C3B",
"a  c #42250A",
"s  c #452B0D",
"d  c #4C2D0E",
"f  c #4C330E",
"g  c #56310C",
"h  c #442F14",
"j  c #502F10",
"k  c #453216",
"l  c #4C3514",
"z  c #453219",
"x  c #4A3518",
"c  c #4E381B",
"v  c #503914",
"b  c #5D3F17",
"n  c #533D1B",
"m  c #413E35",
"M  c #423F39",
"N  c #5F4118",
"B  c #684A1D",
"V  c #714B17",
"C  c #754F19",
"Z  c #755117",
"A  c #76511C",
"S  c #7C541B",
"D  c #7C591D",
"F  c #5E4922",
"G  c #53432A",
"H  c #444037",
"J  c #45433B",
"K  c #48463D",
"L  c #4B493F",
"P  c #634A22",
"I  c #665024",
"U  c #7D5820",
"Y  c #4A4741",
"T  c #4D4B43",
"R  c #4F4F49",
"E  c #574F46",
"W  c #504F49",
"Q  c #515147",
"!  c #55544B",
"~  c #59564D",
"^  c #5B594E",
"/  c #585752",
"(  c #5E5D53",
")  c #5B5B58",
"_  c #615E53",
"`  c #625F58",
"'  c #746341",
"]  c #7A6542",
"[  c #7D6946",
"{  c #7E6B48",
"}  c #636256",
"|  c #65655B",
" . c #69665C",
".. c #67685E",
"X. c #69695E",
"o. c #726D5F",
"O. c #666761",
"+. c #676862",
"@. c #6C6C62",
"#. c #6D6E6A",
"$. c #716F64",
"%. c #6E7066",
"&. c #6F7068",
"*. c #727166",
"=. c #737369",
"-. c #79766C",
";. c #7A796E",
":. c #767770",
">. c #7C7C72",
",. c #834E13",
"<. c #855215",
"1. c #8B5414",
"2. c #8D5816",
"3. c #855A1A",
"4. c #8C5C1B",
"5. c #915816",
"6. c #925E1A",
"7. c #8D601D",
"8. c #966317",
"9. c #94641C",
"0. c #9A661C",
"q. c #9D6A1E",
"w. c #A16D1E",
"e. c #A2701F",
"r. c #885F21",
"t. c #8E6423",
"y. c #8E642A",
"u. c #936722",
"i. c #966923",
"p. c #9C6D22",
"a. c #906629",
"s. c #9B6C29",
"d. c #9E7126",
"f. c #9E712B",
"g. c #A16E21",
"h. c #A47324",
"j. c #A87626",
"k. c #A67827",
"l. c #A97927",
"z. c #A3752A",
"x. c #A87729",
"c. c #A6792B",
"v. c #A97A2A",
"b. c #A37730",
"n. c #A97E31",
"m. c #816C4B",
"M. c #807E73",
"N. c #7F8176",
"B. c #828375",
"V. c #84857A",
"C. c #89867C",
"Z. c #86887B",
"A. c #89897E",
"S. c #8B8B81",
/* pixels */
"# # 7 8 9 8 9 9 0 0 0 9 9 9 9 0 0 9 9 9 9 9 8 9 9 0 0 t 9 * > 2 7 > * 8 t 0 0 8 0 8 9 0 8 9 9 0 0 8 9 9 9 9 w 0 9 9 9 9 3 > % # ",
"* 2 u T ~ ! ! ~ ~ ! ! ! ! Q T / ( ! Q R / / Q W / ) | | ....+.%.%.+.O.+.| | ) / W T ! / R R ! ( / R W ! ~ Q ! ^ ^ ! ! ! T u 2 * ",
"> 3 J _ } | | } } } | } X.| } +.@.+.@.@.O.+.+.+.#.%.&.:.=.;.=.N.>.>.;.=.:.%.%.%.@.+.@.X.+.+.@.+...} | X.| | } _ ( | | } ( K 9 > ",
"> 4 E _  .X.X.X.@.=.=.=.%.+...%.@.@.@.%.@.#.&.%.%.%.:.&.:.=.;.N.:.:.-.:.&.:.%.%.%.%.@.@.%.%.@.@.%.@.+.%.=.*.*.*.+.@.....} T 9 2 ",
"7 4 L }  .o.o.*.*.;.=.=.&.@.@... .X.*.*.@.=.=.-.&.&.=.%.%.=.%.%.=.%.=.=.%.&.=.:.=.=.=.%.*.@.@. ...+.@.%.*.=.;.=.*.$.@. .} L 4 3 ",
"7 9 L  .o.=.;.*.=.=.*.*.%.%. ...| o.*.-.=.-.-.;.:.=.=.=.%.N.%.N.;.%.=.=.:.=.=.=.;.;.-.-.;.*.@.| X.X.@.*.*.*.=.=.=.;.=.o. .L 4 3 ",
"< 9 J }  . . . .X.X.X. . .} } |  . .X.X.$.o.*.*.@.*.*.o.o.@.....X.X.o.o.@.*.*.@.*.*.o.o.@.X. . .| } }  .X.@.X. . . . . .} J 9 < ",
"& 3 i ! ^ _ _ _ _ } _ _ ^ ^ ^ ^ ^ _ } }  .| }  .} } } _ ^ _ ( ! ! ^ } ^ _ } } | } } |  .} } ^ _ ^ ^ ^ ^ _ _ } _ _ _ ^ ^ ! i 3 & ",
"& 2 y ! ~ ^ _ ^ } _ ^ ^ ^ E ^ ^ ^ ( ^ ( } } ^ ^ ( } ^ ! ! ! ! ! ! ! Q ! ! ( ( ( ^ _ } } _ ( ^ ^ ^ ^ Q ^ ^ _ _ } _ _ ^ ~ Q y 2 & ",
"> 9 y ! _ } }  . .} | | } _ } } | |  .| @.@.O.@.$.@...| _ _ _ } } } } _ |  .@.$.X.X.X.@.` | | } } } _ } } } }  . .} } } ! y 4 > ",
"2 w t Q  .*.=.=.*.*.*.*.%.@.o.o.@.@.#.@.-.:.-.$.=.=.%.%.%.+.@.@.@...@.@.@.=.=.*.*.=.>.-.@.&.@.@.o.X.o.=.*.*.@.=.*.*.$.X.E w w 2 ",
"> q t !  .@.%.=.o.*.*.%.@.@.X.%.@.@.#.@.&.=.=.@.=.*.X.%.%.+.| | ..| @.@.@.X.=.=.$.&.=.&.@.&.#.@.%.X.@.X.*.*.*.=.*.*.@. .! t q > ",
"> 9 t ^ ....@.@.@.X.%.X.@.X.X.@.@.@.@.@.@.=.=.*.@.=.%.%.@.@.X.X.....%...%.%.=.%.=.&.&.@.@.@.@.@.@.X.@.@.X.@.@.@.@.@.+...~ e 0 * ",
"> 4 J _ } ..@.@.%.@.%.%.@.X.} @.@.@.@.=.=.=.=.=.*.*.=.@.X.@.X. .......o.%.%.*.*.=.-.=.=.&.#.@.@.@.} X.X.=.%.@.@.@.@.| | _ J 9 2 ",
"> 8 J ~ ^ ..%.X.X.%.%.@.X...X...@.@.@.@.=.=.=.=.%.@.@.@.X. .X.@.@.....X.X.%.%.%.=.=.$.=.@.@.@.@.X.....@.@.@.@.@.@.@.+.! ~ J 3 > ",
"* 7 i ! ! | } X.X. .X.X.X.....@.@.@.X.X.X.@.=.=.=.=.*.@.@.%.X.@.@...%.%.%.%.*.*.=.=.@.@.@. .@.@.X.....X.X.....@...} | ! ! i 8 * ",
"> 3 9 K T | } } +.} } | | ....X...%.=.%.%.=.=.=.=.=.@.=.%.@.%.X.@.%.@.%.@.%.=.=.=.=.=.=.%.=.@.X.@.....| } } | O.} } | T J 9 7 < ",
"> 8 t < K } } ` } } ` ) } } | } } ..X.%.@.*.*.*.=.=.*.%.%.@.@. .X.X.@.=.%.=.%.=.*.=.@.@.@.X.X.| | } } } ` _ } } ) } } J < t 2 2 ",
"* 3 u < K ..| } } | | | ....| ....X.%.@.%.=.=.@.@.=.=.*.%.X.@.@.X.X.X.@.*.=.=.*.@.=.*.%.@.X.X.| X.......| ` } } } | | L < u 2 2 ",
"7 2 i < T } ..+.+.} } X.......@.X.@...X.@.*.*.*.=.=.$.$.X.X.@.@.@.@.X.@.*.$.*.=.=.=.=.%.X.X.@...X.X...| ....| +.+...| T 2 m 2 7 ",
"2 9 J 2 L } | ) ( } | ..} | X...X.@.X.| @.@.=.=.=.=.*.*.*.X.X.@.*.X.%.*.=.=.=.=.*.%.@.@.....@.X.X.@.| } ..| } _ ) | } L 2 J 9 2 ",
"* 0 T 2 L } | | | ......@.@.@.@.@.@.@.*.%.@.%.=.@.=.*.=.*.*.%.=.*.@.@.*.=.*.=.$.=.*.@.*.%.@.@.@.@.@.@.X.X.....} | } } L < T 0 * ",
"* 9 p < L | | ..X.X.@.X...@.X.@.@.@.@.@.@.@.*.@.@.=.=.=.=.@.%.@.%.%.*.*.=.=.=.X.*.=.@.@.@.@.@.@.X...X...X.X...@.....} T < p 9 * ",
"* 8 u 2 L } ..@.....X.@...@.@.X.X.@.%.@.@.X.=.*.%.@.=.=.-.=.=.=.=.=.=.-.=.=.X.@.=.=.X.@.@.%.@.X.X.@.@.@.@.@...X.@...} T 8 u 9 & ",
"& 7 0 H ~ | +.$.@.O.@.@.@.@.X.X.X.X.X.@.@.| %.=.=.*.=.=.=.%.=.$.=.=.=.=.=.=.@.=.=.=.| @.@.X.@.| ..X.@.@.@.@.@.@.+.@.| ^ J 9 7 & ",
"& 8 i ~ _ | O.+. . . .X.| @.@.| X.@.@.@.X.X.@.=.%.@.=.=.=.=.=.=.=.=.=.=.*.=.@.*.=.@.X.X.@.@.@.X...X.@.| @. .| X.+...| ^ ~ i 3 > ",
"& 9 p ~ `  .+.+.@.| X. .| | @...} @.@.@.@.@.@.@.@.@.=.=.=.$.=.=.=.%.=.=.=.=.@.%.@.@.@.@.@.@.@.} X.X.| | | X. .@.+.....} ~ M 7 > ",
"* q K /  .`  . .@.@.@.@...@.| ....X.X.@.@.@.@.X.@.@.@.@.@.@.*.$.*.*.X.@.@.@.@.@.X...@.@.X.X.X...X...@...X.@.@.O.....| | / K q * ",
"< 0 y ! _ `  . . .@.O. . .X.| @.X.%.+...@...| @.@.@.@.@.@.@.@.$.$.@.@.@.@.@.+.@.@.| | @.X.@.@. .X.....|  .O. .@. . .` _ ~ y q * ",
"* 9 u ~ `  . . .@.| | | } | | | | | | | | ..| | @.X.O.O.|  . .|  . . .| @.| ..@.| | @.| } | | | | | | | | | @. . . . .` ~ u 9 * ",
"* 2 3 L ( ` `  .| |  .| | Y i ( _ ( Y e / | ` | | | ` | | | | ( ^ | | | ` | | | | ` | ~ t Y ) ` ( u T | `  .| | ` ` ` ( Y 3 > * ",
"% * 2 t i m J J K K Y K J p > M J p i % i H m H i m H J J M J J J K M J J M m i m m M i % i M J m > p J L Y Y K K K m m w 2 > $ ",
"o O @ & & & & < & * * & & + + & & % # O * & & & % % % * * % & & & & % * * # % & % % & & o # % & & + # & & * * & & & & & & $ O O ",
"7 q T _ } @.@.o.+.O.@.@.O.@.O.@.+.+.+.@.@.X.X.@.@.#.#.#.) R ! ~ / ! R ) #.#.@.#.@.%...@.@.+.+.+.....+.+.+.@...@.+.#.@.` _ T q 2 ",
"> w ^ ;.M.B.C.C.>.>.:.:.>.B.>.>.N.>.N.N.N.N.Z.B.>.V.N.N.N.>.V.V.S.N.>.N.N.N.V.>.N.N.Z.Z.N.N.N.N.N.>.N.N.-.;.B.B.N.V.N.M.;.^ w > ",
"> y } M.V.Z.A.A.S.V.N.>.>.C.V.V.Z.V.N.Z.A.S.A.A.Z.S.V.S.V.V.V.V.N.V.S.N.S.V.S.S.A.Z.A.A.Z.N.V.V.V.V.B.N.;.B.V.A.S.S.Z.V.B.} y > ",
"2 m X.M.C.Z.A.A.S.S.S.C.Z.C.V.C.Z.V.N.B.Z.A.A.A.S.C.V.S.C.Z.Z.V.V.Z.C.C.S.S.V.S.A.A.A.A.N.N.B.Z.V.V.A.A.A.A.A.A.S.A.C.C.M.o.m < ",
"2 J X.M.C.Z.A.A.S.C.C.S.A.A.C.V.B.V.V.V.A.A.A.A.S.S.S.M.Z.Z.Z.Z.V.Z.Z.B.V.V.S.S.A.A.A.A.V.Z.Z.B.V.C.A.Z.A.A.C.C.A.A.C.B.M. .H 7 ",
"7 J  .M.B.C.C.C.C.B.V.B.B.B.V.B.B.B.B.V.Z.Z.Z.C.Z.Z.B.B.Z.B.B.B.B.B.Z.Z.B.B.B.V.Z.Z.Z.Z.B.B.B.N.B.V.B.B.V.B.B.C.A.C.B.B.M. .J 2 ",
"* z E  .o.o.o.*.o.*.*.*.o.$.o.$.o.o.X.o.*.*.-.o.*.*.$.X.*.*.*.*.o.*.*.*.X.o.=.$.o.*.=.=.o.o.@.%.*.o.o.o.o.*.*.-.-.m.o.o. .E y * ",
"& r G ' ' { m.m.m.m.m.] ] ] ] ] ] ] ] ] { { { { [ m.U ] { [ ] ] ] ] [ [ ] ] [ [ { ] { ] ] ] ] ] ] ] ] ] ] m.m.m.m.m.{ ] ' G r % ",
"% h b D r.y.y.a.a.a.4.4.t.7.3.4.7.7.t.t.t.t.t.t.a.u.y.y.u.y.t.t.9.u.t.u.t.u.t.t.y.y.t.u.t.t.7.7.r.4.4.7.4.t.t.a.a.a.y.r.U b h % ",
"2 z d D u.s.f.b.z.z.g.w.w.w.q.q.9.w.p.e.d.k.k.k.g.h.g.h.h.h.q.h.k.q.h.h.g.g.h.h.k.z.k.h.e.e.w.8.q.0.g.g.g.p.z.z.b.z.s.a.U d z 7 ",
"* z x D i.b.b.b.z.z.h.e.g.g.q.q.w.e.e.h.k.k.k.c.v.h.h.h.j.h.d.k.k.h.h.j.h.h.h.x.k.k.k.k.h.h.e.w.w.p.g.g.g.g.z.c.b.b.b.i.S l z * ",
"> h j 4.u.z.z.z.h.h.h.h.g.q.q.w.q.e.k.e.e.e.d.d.j.h.h.g.j.j.l.v.v.k.h.j.e.h.h.x.h.d.p.e.d.h.w.q.w.q.q.g.g.h.j.h.z.z.z.0.4.l h * ",
"7 c A u.p.s.z.z.g.h.h.w.q.w.q.w.w.e.e.e.d.k.k.k.x.x.j.j.e.l.v.v.v.v.l.h.j.j.j.x.k.z.k.h.h.e.w.w.w.q.g.q.w.g.g.g.z.z.s.i.u.C c 2 ",
"> c S u.s.g.g.h.h.g.q.w.g.g.q.q.q.e.e.k.d.k.c.c.c.l.j.j.h.j.l.l.l.l.l.h.j.j.x.c.c.c.k.h.h.e.e.q.0.w.g.g.w.w.g.j.g.z.g.p.9.S c 2 ",
"> x C 6.0.g.h.h.w.g.w.g.p.g.q.w.w.w.e.k.k.k.n.n.c.c.c.k.l.j.l.l.l.l.k.l.j.v.c.c.n.n.k.k.j.e.e.w.g.q.p.g.g.w.g.g.g.z.g.i.9.C c * ",
"7 z f 3.9.q.q.g.g.h.w.q.q.p.q.q.w.g.h.h.j.v.c.n.n.v.n.v.c.k.j.k.j.k.k.k.k.c.n.n.n.v.x.h.h.e.h.w.w.0.p.0.w.g.g.w.g.q.q.6.3.l x > ",
"> c n f 3.q.q.g.g.g.p.p.0.p.p.q.w.h.h.h.j.v.c.n.b.b.c.c.v.l.h.h.j.k.k.k.c.n.f.c.n.b.c.j.h.h.h.w.q.g.p.0.i.p.g.g.g.q.q.3.f n c 2 ",
"2 c N 1 D q.h.h.g.q.q.9.8.q.0.q.w.w.g.h.h.z.z.b.c.c.v.c.l.l.j.j.h.j.c.c.c.c.c.n.z.b.j.z.h.h.g.w.q.q.q.9.9.q.q.g.g.g.g.D 1 F l * ",
"2 v N 3 D q.h.h.g.q.q.9.8.q.q.q.w.h.g.h.z.h.z.v.c.c.c.c.j.j.j.j.j.h.l.k.k.n.k.c.v.c.h.h.h.h.g.w.q.q.q.8.0.q.q.g.z.h.g.D 1 P v * ",
"* k P 3 Z 9.d.h.h.g.g.0.q.q.q.q.w.h.e.h.d.d.d.k.c.h.h.h.h.h.j.e.h.j.e.j.j.h.d.k.z.h.p.j.g.g.h.g.q.0.q.0.0.w.g.h.h.d.q.Z 3 P l * ",
"< f I 4 Z q.p.e.g.w.w.g.q.g.0.q.w.e.h.h.h.e.k.k.k.d.h.h.e.e.e.j.h.e.w.e.e.h.h.h.z.j.p.h.j.g.g.g.q.0.w.p.g.w.g.g.e.d.q.Z 4 P f > ",
"< l I 4 D p.d.d.h.h.g.g.g.q.0.w.w.w.h.h.e.p.d.d.d.e.h.e.e.w.e.e.e.e.e.e.e.e.d.e.h.d.p.h.h.h.g.w.w.0.w.g.g.g.j.g.d.e.d.D 4 I l * ",
"2 x F 1 D d.h.j.g.g.g.g.g.w.w.w.q.h.h.h.h.p.9.k.k.h.h.e.e.e.j.e.e.j.e.e.e.k.k.k.f.9.q.h.h.g.g.w.w.w.w.w.g.g.g.g.h.d.p.U 1 F l 2 ",
"> k x B r.9.d.h.g.g.g.g.p.w.0.w.w.g.g.z.g.g.7.f.k.h.h.w.w.e.h.g.h.h.w.w.e.h.h.h.f.9.d.d.h.d.g.w.w.q.w.w.g.g.g.w.h.d.9.r.B l k > ",
"> k B 7.i.q.d.s.0.q.g.g.0.w.6.w.w.g.p.g.z.g.9.f.f.h.h.e.h.w.e.0.w.e.e.e.h.h.h.k.f.7.d.k.d.e.g.w.w.q.q.q.w.g.q.0.h.d.0.i.7.N c < ",
"< l Z 7.9.i.p.q.q.8.q.q.p.8.w.6.0.g.p.s.z.q.9.d.d.k.d.d.g.e.p.7.5.q.d.h.d.d.f.d.d.9.q.h.q.q.p.0.6.6.9.0.q.q.0.0.q.p.i.9.4.C x > ",
"7 h V 7.9.0.p.8.0.0.0.0.0.0.6.w.0.p.g.g.s.s.i.d.d.d.d.p.q.0.q.9.9.0.0.q.p.d.d.d.d.p.s.s.d.d.p.0.6.w.0.u.0.8.0.0.9.p.i.9.7.C k > ",
"* 6 : C 4.9.9.6.6.9.6.6.6.9.9.6.6.0.i.i.u.q.7.i.i.q.9.9.9.9.8.4.7.8.0.9.9.9.q.i.i.u.u.i.i.p.0.6.0.6.q.6.9.6.9.5.6.7.9.4.C , 6 & ",
"$ 5 - g ,.,.,.,.1.,.1.<.2.6.1.1.1.5.6.6.7.<.4.7.t.7.4.3.4.1.<.,.,.<.1.4.2.4.7.7.4.4.,.6.6.6.5.1.1.1.6.2.<.<.,.1.<.,.,.<.g - 5 $ ",
"o @ - = , , a a a : a a s l d d j j j s s s s s s a a a s a , : : a a a , , s s s s s s s j d j d s j d a , a a , a , , = ; @ o ",
"o o O # # # O # + # O # X     X X X X # % % # # # # % % # # # # # # # # % % # % # # $ % # X . X . . . . + O # + # + # O # # o o "
};
