/* XPM */
static char *result[] = {
/* columns rows colors chars-per-pixel */
"64 64 85 1 ",
"  c #090A07",
". c #0D0D0C",
"X c #11110F",
"o c #151513",
"O c #171814",
"+ c #191916",
"@ c #1B1B1A",
"# c #23160C",
"$ c #351F0B",
"% c #201D17",
"& c #201F1B",
"* c #22221E",
"= c #29251C",
"- c #252523",
"; c #282724",
": c #272827",
"> c #2A2926",
", c #272828",
"< c #2C2C2A",
"1 c #332C22",
"2 c #32322D",
"3 c #353532",
"4 c #363935",
"5 c #3B3A35",
"6 c #363938",
"7 c #3C3C3B",
"8 c #442D0E",
"9 c #4A2F0E",
"0 c #4E310D",
"q c #472E12",
"w c #4C3310",
"e c #563C16",
"r c #403F3A",
"t c #3F403D",
"y c #5A4018",
"u c #60461C",
"i c #664A1B",
"p c #684B1D",
"a c #42423D",
"s c #544E3F",
"d c #3F4441",
"f c #434542",
"g c #484742",
"h c #464945",
"j c #494A46",
"k c #474A48",
"l c #4A4C4A",
"z c #4E514E",
"x c #4F5250",
"c c #565750",
"v c #5A5B56",
"b c #5F5F5A",
"n c #605F53",
"m c #62625D",
"M c #7C7663",
"N c #8F621D",
"B c #9B6C1E",
"V c #A16E1E",
"C c #A0701F",
"Z c #8C6521",
"A c #966A23",
"S c #9B6D22",
"D c #9F7020",
"F c #A47222",
"G c #AB7623",
"H c #AC7A24",
"J c #AB7B2B",
"K c #B27D25",
"L c #B17F28",
"P c #807A65",
"I c #867E6C",
"U c #BA8126",
"Y c #B68028",
"T c #BB852A",
"R c #BE8A30",
"E c #87816D",
"W c #89826E",
"Q c #8C8572",
"! c #93958A",
"~ c #9A9C91",
"^ c #A4A69C",
"/ c #A7A8A0",
"( c #A8A9A1",
") c #ECECEC",
"_ c None",
/* pixels */
"-++**=->--;-*--:-->>:<<,<,,,<<<<<,,,,,,<<<,,,-,,,,,,,,<<,:::><>-",
"-257raaaggaaaafafjjjjhhfkllllzzxxkkffhkllkfftfkkkkkkklkzlllzltt4",
"*<355raaaaaaa7tafjgjfafffffffhljkddtffhhfdd77777ffffhdfkhllzhd76",
"*>255aaraaaaaaaaaataa77affffgjjjddtthgtfdd7776677fffddhffffkft76",
"&-><223344533<*O+Ooo+O@@&@&&---@@@@*&&@@@@@++++@@@*,6666444644<:",
"&XoXo+++oooOoo))))__)))_)))))______________________@@@@@+++@@@@@",
"<+++&3))_)))___________))_________________________________<+++@5",
";oo++<)_)_____________))__________________________________-o+o+<",
"=oooO>))_____________))___________________________________=oooo>",
"-OoOO<)_____________))____________________________________-+ooO<",
"<+@+@2)____________))_____________________________________<@+@@2",
"<+++&3____________))______________________________________<+++@3",
"<+@+@2___________))_______________________________________<+++@2",
"2>>><3)_________))________________________________________2<>><5",
"< ...>_________))_________________________________________> ...>",
"<---<3________))__________________________________________<--><2",
"<---<5_______))___________________________________________<---<3",
">X.Xo>______))___________________________________________)>XXXo<",
"2:>><3_____))____________________________________________)<>;;<5",
">++@&2____))______________________________________________<@+@&<",
":XXXo>)__))_______________________________________________>XXXo>",
"<;--<3)_))________________________________________________<=;-<3",
">OooO1)))________________________________________________)>OXoO1",
">O+O+2))_________________________________________________)<+++@<",
"2<2<25)__________________________________________________)2<2<24",
">    ;)___________________________________________________>    :",
"2@&&&2)__________________________________________________)2&&&&2",
"<@@+@3___________________________________________________)<&&++3",
">....<___________________________________________________)-....>",
"<--**3___________________________________________________)<--**3",
">*@+&<___________________________________________________)>*@@@2",
"&XX.X-__________________________________________________))@XX.X*",
"oooo+@_________________________________________________)))OOoo++",
"--**-<________________________________________________))));-&--<",
":@@@+3_______________________________________________)))))>@@@+3",
":@@@+3______________________________________________))))_):@@++3",
">++@+2_____________________________________________))))__),+@+@2",
">+@o+2____________________________________________))))___):++++2",
",oooo2___________________________________________))))____),oo+o2",
"*XoXo;__________________________________________))))_____)*XoXX:",
"@XXXX;_________________________________________))))_____))%XXXX=",
"&XoXo&________________________________________))))_____)_)+ooXX=",
"&ooo+1_______________________________________))))_____)__)-Oooo1",
"1o@oo1______________________________________))))_____)____=+@oo1",
"=oOoo1_____________________________________))))_____)____)=oooo<",
";--->1____________________________________))))_____)_____);--->1",
"=X..X=___________________________________))))_____)))__)))-X...=",
"&XoXoO++oooooo___________)____)___)))_)))))))))_)))++@@@+@@@@&@@",
"%;>2<233555532*+OOoo+O+@&@*&-*-@@@@&*@@@@@@+o++@@@@<6664434444<,",
"*:25rrrraaaaaaaaaaaaa77affffhkjhff7tkkfffd777667dfffdddhfdfkftt6",
"*<35rrraaraaar7afjghfafffhfffhlkfff7ffffff7777777hfhkfkkhllkkr76",
"-255rrffsaaaaaffgjkkjjfhhlljlxlxxlkfffklkkfdffkllkkjkkklllzzkf74",
"*@%&@-,,-----------:,<,<<,,<<,<<<,,,,,,<,<,,--,,,,::,<<<<>-><<--",
">5cnvvnnbmmmccvvvbmmmmcvvvvmmmmmmmmmbbvvvxmmmbbvvvvcmmnbbvvvvc3<",
"<n!~^^^((^(^!~^^^((^(/!~^^^^(^//((^/((^^~!((^/(/^^~!/^^/^^^^~!n2",
"-jPPIIIQQEEIMMIIQQQEEIMMEIEQQEEIIIIIIIIIIMIIQQQQIEMMIEQQQQIIMMs-",
"-uADJDDYJJLGSFFJDYJJJFSFJJJLJLKGGJGJJGJGFSGLJJJFJGDSGLHJJFJFDSu-",
"-pFYTRRRTTTKGKTTTRRTTTFKLTTRTTTUYRTRRRRLKFKTTTRTTTKFKTTRRRTTKFp>",
":pDFYYTTTTUKFFJTTTUTUKSFKLTLLTUKKUTUKRTKFSKUTTTTLKFVKTTUTTTKFSp-",
"-pADHYYHKLKKSFHKYKHYYHSFKLKKKTKGGYYKKKKGFSKKKKKKKJFSKKKKHLKHFSp-",
"*uAHHHYHHKKGAFHHYFYYKGAFKKLGGKKGGKKGKKKJFAGKKHHYKHGAGKKHHYHHGAu*",
"*yZFHHHHKKGCNFHHHGHHHFZFKGHHKKGFFGKKGJGKFZFHHHHHGKFZFHKKHHHHFZy*",
"=yNBFBFFCFFVNBFFFFCFFVNBDDFSFFFVVFGFDDVVBNVCFFFDDDSNBCFFDDCFBNy*",
"o#$$q8000008$8q8000099$8q9w0099999000wqq8$0000008q8$90000w8q8$#X"
};
