/* XPM */
static char *_9b25ebfe6ae4a0bc9516edeee1b5f14[] = {
/* columns rows colors chars-per-pixel */
"64 64 216 2 ",
"   c #050504",
".  c #090705",
"X  c #070806",
"o  c #090906",
"O  c #070708",
"+  c #060808",
"@  c #0D0D0B",
"#  c #09070A",
"$  c #110F0D",
"%  c #0F100C",
"&  c #12110E",
"*  c #1C160E",
"=  c #141412",
"-  c #191612",
";  c #171814",
":  c #1A1916",
">  c #1C1C1A",
",  c #0F1211",
"<  c #291A0B",
"1  c #361E0B",
"2  c #221D16",
"3  c #211F1B",
"4  c #1F201C",
"5  c #3C220C",
"6  c #362109",
"7  c #22211E",
"8  c #28241B",
"9  c #362B1C",
"0  c #382E1D",
"q  c #342615",
"w  c #3B301D",
"e  c #242422",
"r  c #282724",
"t  c #272823",
"y  c #292926",
"u  c #2C2C2A",
"i  c #292729",
"p  c #332D22",
"a  c #302F2B",
"s  c #392F23",
"d  c #343126",
"f  c #3B3223",
"g  c #33322D",
"h  c #39362C",
"j  c #3A392F",
"k  c #353532",
"l  c #383731",
"z  c #3C3B34",
"x  c #3E3D39",
"c  c #2F302C",
"v  c #441E08",
"b  c #422A0D",
"n  c #462A0C",
"m  c #4A320F",
"M  c #54340E",
"N  c #462D12",
"B  c #453214",
"V  c #4D3412",
"C  c #493618",
"Z  c #543512",
"A  c #543A15",
"S  c #593B14",
"D  c #543D1B",
"F  c #5A3D18",
"G  c #623E12",
"H  c #693E12",
"J  c #61330D",
"K  c #443725",
"L  c #513F22",
"P  c #433F36",
"I  c #413F3A",
"U  c #55421C",
"Y  c #5E421A",
"T  c #5C4115",
"R  c #634316",
"E  c #6C4313",
"W  c #65491C",
"Q  c #6A4C1B",
"!  c #62441B",
"~  c #714D1A",
"^  c #754B17",
"/  c #74531C",
"(  c #7C551B",
")  c #7D581A",
"_  c #795316",
"`  c #5E4925",
"'  c #444235",
"]  c #45433C",
"[  c #48463C",
"{  c #4C4A3E",
"}  c #664D25",
"|  c #6C5325",
" . c #6B532D",
".. c #745223",
"X. c #7B5821",
"o. c #6A5433",
"O. c #715A3B",
"+. c #464641",
"@. c #494741",
"#. c #4C4B44",
"$. c #4E4E49",
"%. c #524E44",
"&. c #514F48",
"*. c #525146",
"=. c #54534B",
"-. c #5C594D",
";. c #5A5546",
":. c #565650",
">. c #5C5B53",
",. c #5E5E59",
"<. c #4F5049",
"1. c #635D4B",
"2. c #625B47",
"3. c #605E54",
"4. c #5F6058",
"5. c #68614F",
"6. c #626156",
"7. c #64645B",
"8. c #6A6A5E",
"9. c #696558",
"0. c #726C58",
"q. c #79735F",
"w. c #75705B",
"e. c #6C6B63",
"r. c #6F6E68",
"t. c #676761",
"y. c #716E64",
"u. c #716F6A",
"i. c #6F7069",
"p. c #727166",
"a. c #7F7661",
"s. c #74746B",
"d. c #79766C",
"f. c #7B7A6E",
"g. c #7F7A64",
"h. c #767770",
"j. c #777870",
"k. c #7C7C73",
"l. c #7B7B74",
"z. c #845C1C",
"x. c #895E1C",
"c. c #845718",
"v. c #945D18",
"b. c #86601E",
"n. c #8B621E",
"m. c #92631C",
"M. c #9B6B1D",
"N. c #97651B",
"B. c #9F711F",
"V. c #A26D1D",
"C. c #A4711F",
"Z. c #A9751E",
"A. c #845E22",
"S. c #895D24",
"D. c #856223",
"F. c #8D6521",
"G. c #8E6923",
"H. c #83632B",
"J. c #88662F",
"K. c #906622",
"L. c #926923",
"P. c #9B6D23",
"I. c #946D29",
"U. c #95702D",
"Y. c #856633",
"T. c #8A6832",
"R. c #946E31",
"E. c #967332",
"W. c #A16E21",
"Q. c #A47323",
"!. c #AA7623",
"~. c #AD7A25",
"^. c #AB7B2A",
"/. c #A6782A",
"(. c #B27C25",
"). c #B37F28",
"_. c #B97F24",
"`. c #817964",
"'. c #817F74",
"]. c #7F8077",
"[. c #7F8079",
"{. c #B58026",
"}. c #BA8226",
"|. c #B48129",
" X c #BC852A",
".X c #BE8A2D",
"XX c #BF8D32",
"oX c #BB8730",
"OX c #C0892C",
"+X c #C08B32",
"@X c #828176",
"#X c #84847A",
"$X c #89877C",
"%X c #87887D",
"&X c #898A7E",
"*X c #888677",
"=X c #868780",
"-X c #878881",
";X c #8C8C82",
":X c #8E8F88",
">X c #898781",
",X c #908E85",
"<X c #8F9085",
"1X c #919186",
"2X c #94958A",
"3X c #99978E",
"4X c #96988C",
"5X c #999A8E",
"6X c #9C9C92",
"7X c #9EA095",
"8X c #9EA199",
"9X c #A0A196",
"0X c #A3A49B",
"qX c #A7A8A0",
"wX c #A9AAA2",
"eX c #A6A7A0",
/* pixels */
"@ $ & : : : : > : 2 2 > : > : : : : 8 > > 3 > = = = = = , , = , = = , , = , , = > > 4 4 > = : ; - : = * ; ; ; & & - ; : ; * & ; ",
"> 7 k 7.e.p.d.k.s.s.e.j.'.#Xl.f.l.l.d.x u i i : 8 e e e e e i e e i e i i i i i u u e u k x 4.e.d.j.h.h.].k.f.e.e.k.s.s.=.z e k ",
"4 > x 8.'.*X&X1X,X1X;X2X4X4X3X2X4X4X1X3.a u y = : : : : : = = : : > > > > 4 > > > u e g ] e.s.d.f.f.d.#X%X#X@X@X@X&X&X%X-.h e a ",
"7 > ] p.&X4X5X6X6X6X6X6X7X6X6X5X6X6X6X9.a i y = ; : : : : : : : > > > = > > > 4 > u e g x p.k.j.#X$X@Xk.<X%X<X<X$X;X<X2Xe.j e u ",
"8 4 ] f.;X3X6X9X9X9X0X5X5X5X6X6X6X7X3X8.k e e ; : ; : : : > : > > > > , > > > 4 4 u e g ' p.].d.f.].%X%X$X<X<X&X;X;X%X<Xs.z 8 c ",
"3 4 [ d.,X3X5X9X9X9X9X9X2X5X2X4X6X9X,Xe.l y u ; ; ; ; > > : > : = > , > > > 4 e 4 u t l ] p.].*X@X%X;X%X*X;X1X2X:X1X:X1Xs.P y u ",
"> 3 ] p.&X1X2X2X5X5X5X1X*X&X<X2X1X,X,X6.k u y > ; ; > : : > : : > > > = > > > e 4 t 8 j [ i.].].k.k.#X*X%X@X@X&X;X;X;X;Xe.] t y ",
": : h 3.g.'.*X*X&X&X&X*X'.@X].*X'.@X@X=.u e 4 & = , = = , = = = = , > = = = > = 4 4 4 u z :.8.8.8.w.p.p.p.y.p.p.y.p.s.i.$.g : 4 ",
": : g ;.d.`.'.*X*X*X&X*X'.*X'.'.].@X].:.t 4 > = , = , , = = = = > = = = = = : = = 7 ; u z %.-.6.6.9.8.8.8.8.e.p.y.e.r.e.$.g > 4 ",
": : k =.y.@X*X&X&X&X&X&X'.*X$X$X=X=X@X>.a 7 7 = = , : = = = = = = = > = : : : : ; e > u z *.7.9.8.w.s.j.d.s.j.p.d.d.d.s.:.k > e ",
"e 3 @.=.>.,X5X3X6X5X5X5X&X3X5X3X4X2X2Xh.l t t = : : > > > ; > > > = > = > > > > > y e k ' 8.f.k.].%X#X$X*X%X;X;X;X;X,X;Xs.+.e t ",
"r 3 ] -.e.1X5X9X9X6X5X5X1X4X4X4X6X5X-Xt.g t y ; = > > : : = ; ; = > > = : : > e 4 u e l #.6.d.].@X;X$X#X$X%X$X;X,X;X,X;Xt.+.e y ",
"7 > I #.*X2X3X5X5X3X3X3X1X4X2X4X4X4Xt.>.g e i = : : : : : ; : ; > = > > ; : > > > 7 4 k +.] f.@X%X$X%X@X@X#X$X$X;X;X-X$X:.x 7 i ",
"7 2 ' 8.*X&X,X3X5X5X5X5X1X4X1X4X4X3X2Xu.g i i e i e e i y e e e e i e e i e y y u k e k I 6.f.].@X%X$X#X#X#X#X$X%X#X#X=Xe.+.e e ",
"e 4 x 8.*X&X&X2X5X5X5X5X&X4X4X2X2X6X3Xu.k y e # $ , , , , @ , , , , , , = = = = , ; e k ' 6.s.g.'.#X#X].#X#X#X#X$X#X%X#Xr.+.e e ",
"e 4 z 4.*X*X2X3X3X3X5X5X&X2X2X&X2X3X:Xe.a e u 7 e e e e i e e y i i e i y u u k c x e k z >.s.d.f.].#Xk.k.@Xk.#X%X-X=X=Xe.+.e i ",
"7 4 l P 8.f.&X1X1X1X1X1X1X1X<X<X4X2Xt.:.c t u e y e t y y t t t e i e u u i c c u x e k z P w.s.f.'.k.f.k.#Xk.#X#X#X].l.=.x e e ",
"e : z <.u { *X1X1X&X1X&X%X*X&X&X&X<X=X7.c t t + @ + @ X o @ o + o o # # @ @ @ @ @ @ 4 k P >.p.d.k.@X#Xj.k.'.'.#X#X#X#X].t.+.e e ",
"7 : z 7.d { *X<X<X&X1X&X*X&X&X&X<X2X1Xe.c e c t u c a u a u t y y y i c c c k k k I 7 k P 9.d.k.'.@Xk.k.j.@X#X#X#Xk.k.k.i.+.7 e ",
"4 : P 7.g *.&X<X&X1X&X;X;X<X&X<X&X<X;X7.c t e = = : ; ; ; = : = ; ; = = > = > > ; 4 e g ] 6.d.g.k.k.k.'.k.#X$X$X#X#X%X$Xe.+.8 e ",
"4 > z ,.g %.@X$X;X&X&X$X&X&X*X&X<X-X4.<.c e e , % , & , & % & & , , , & , = = = = ; 7 k ] ] p.'.'.@X].].@X%X%X$X>X=X=X[.:.x e y ",
"3 : z ,.a { $X;X$X;X1X1X1X&X<X1X<X:X-X4.g t u y u y a y y u a u y u u i u u g k k x e k [ 7.k.k.].@X#X].].%X>X>X:X>X>X:Xe.I 7 y ",
"7 : z >.u { &X1X&X1X;X1X<X&X<X&X<X:X:Xe.g y e @ % % % % % % % % @ @ $ @ @ , @ , , , e k [ e.j.k.k.#X=X-X;X=X;X:X;X>X-X-Xe.+.e e ",
"7 : l =.z *.&X1X2X<X;X<X1X&X&X&X<X<X=X7.g t y > 4 4 8 7 4 7 4 4 e 3 > > 7 e e e e u 7 k { 3.s.k.#X$X=X-X-X;X;X:X,X:X:X-Xe.+.e y ",
"7 2 z ] p.].;X2X1X;X1X;X1X*X%X&X<X;X7.<.g y t 4 4 4 e 4 7 e 7 e 7 > > 7 e 8 e e e y e g ] ] y.j.'.'.>X>X>X:X,X,X,X:X;X'.>.I e i ",
"7 : z 7.@X$X;X<X<X1X;X;X&X&X%X&X<X<X-Xe.k y e @ @ @ @ @ @ @ @ @ @ @ @ @ & @ @ @ o @ 7 k [ 7.f.k.l.'.;X>X>X>X,X:X2X:X:X=Xr.#.e i ",
"7 2 z 7.@X*X;X1X2X1X;X;X<X&X&X&X<X<X:Xe.l y a 7 e e y y e u i e e e e e t t t 7 e k 7 g ] 7.d.j.k.=X>X;X>X>X:X,X,X>X:X>Xu.$.e i ",
"7 > x 7.k.%X;X1X;X;X;X;X1X&X&X<X;X;X[.4.a t e & & % = , = = , % = @ @ , % % & & = 4 7 k ] 3.d.j.l.=X>X;X'.>X;X:X>X=X#Xk.7.] 7 i ",
"e > z ] j.@X%X$X&X&X$X&X&X*X%X;X;X;X4.' u y e & = & = = = = = = , , = , = % = % , : > g [ ] p.k.l.#X#X#Xk.#X'.-X#X#X$Xk.=.l 3 u ",
"7 3 z =.p.%X$X$X$X*X%X$X%X@X@X*X[.%Xj.*.a e u t y y u u u y e e 3 e e e e y e y i k 7 g ] >.y.j.y.j.h.l.d.k.k.l.l.l.].#X7.I 7 u ",
"3 > z $.=.k.#X@X#X@X'.'.#X].k.k.].].].$.u 7 7 & ; ; ; ; = = = = , = = = = = : ; : 3 : u I >.7.7.7.e.e.t.t.e.u.p.r.h.j.s.3.z 3 r ",
"& & 7 d h [ [ ] ] ] [ [ { ] ' ' [ [ z t 4 ; ; & @ @ @ @ @ @ @ @ @ @ @ @ @ @ @ @ @ : : > r g d a s j l l j j j z z z z z d 8 & & ",
"& - : 3 7 7 e e e e e e e e 7 7 e 3 e > > 2 : = i > > e > 4 4 4 > 3 4 4 4 e e > e > > e > > e 7 e e e e e e e e e i i i e 7 , 7 ",
"7 3 a @.3.e.r.d.i.i.s.i.7.e.p.i.u.s.u.$.a i i - > e i > e 4 4 4 > 4 4 > 4 e e > e i i k +.t.:X-X-X:X:X:X2X4X6X6X6X6X8X6X'.:.7 c ",
"7 3 l :.d.l.f.k.l.l.k.j.j.j.j.j.l.k.h.>.a e e = > > > > > = > = : : > > = > = > > i 4 k #.=X4X5X5X5X6X6X9X0X0X0X8X8XeXeX;X=.e i ",
"7 3 I >.d.'.%X#X=X#X].l.l.l.s.].l.l.s.:.u e i = > > > > = > > > > : = > > = > > > i > k #.;X4X3X8X0X0X8XwXwXwXwXeXeXeXwX:X&.e i ",
"7 3 z 3.d.@X*X%X=X#X#X[.].k.l.l.h.h.s.:.i i 7 = , , > , > ; > : = > = > = > > > : e 4 c ] #X1X3X8X8X9X0X0XwX0XwX0X0X0X8X;X>.e e ",
"8 7 ] 9.d.f.*X%X#X#X[.#X].].l.k.l.h.h.,.k i i = > > > > ; : = ; > > > > > , > , : i > k %.=X2X3X7X8X8X0X0X0X0X0X0X9X0X6X;X3.y e ",
"7 > k =.9.8.p.p.y.i.e.e.p.e.8.8.t.8.t.<.i 3 e , , , , , = = = = , = = = = = , , = > > y [ y.'.'.*X&X$X;X<X<X<X<X;X%X$X#Xp.&.e e ",
": : s ' ;.1.5.5.5.5.1.5.5.1.1.-.;.;.;.' i > > $ , , , , & = & & , , , = , , , , = > = 7 K 2.0.0.w.q.w.q.g.`.g.q.`.a.`.p.1.P > > ",
"2 ; d D ` o.O.O.O.O. . . .| | } } } } w 8 : : @ @ @ = $ & = @ @ , , , , , , , , $ > = > K  .Y.H.Y.Y.H.H.T.T.T.T.T.T.T.S...K 2 : ",
"7 : 0 M Y / H.H.X.H.X.H.D.) ( ) ) ) / M q 4 > = = , = = = = = = = = = = = = = = = > > i C c.P.v.B.Q.!.Q././.^.Q.!././.Q.K.F 2 7 ",
"7 > d B D H.U.E.R.I.I.L.G.n.m.n.n.m.G.T 9 e e = ; ; ; = > > = = = = = = = : = = = e > i L W.^.(.~.}.oX^.).XX+X). X+X X}.!.E 2 e ",
"8 4 p m Q D.I.E.U.I.I.L.L.L.n.n.G.F./ A 9 e e % , = = = ; = = = = = = = = = = , = > > i L ^ /.). X.XoX XXXXX+X X.X+X X_.v.! 3 e ",
"7 > p V _ D.I.U.I.I.L.L.m.m.n.x.n.n...M 9 e i > 4 4 e e e 4 e e i > i e i 7 i e e i 3 i L ../.(. X.X.XXXXXXX+XOX}.OX X_.K.} 2 e ",
"7 > 0 G z.x.G.L.I.L.G.K.m.n.x.n.G.n.n.R 9 e e = ; ; = ; : = , = = = = = = , = = , : 3 i F W.(.).|. X X.X X.X X XOX X}._.Q.! 2 e ",
"7 4 f G A.x.G.I.L.G.L.L.n.n.n.x.F.G.G.T 9 e t , & = = % , = , ; = = = = = = $ $ , = 3 i L W.^.!.!.}. X.XOX.X X}.OX_. X).Z.Q 2 e ",
"7 : s m ~ x.x.F.n.G.m.G.n.b.b.z.b.n.~ U 9 t u y a t u u t y 8 8 i i i i i i i i i a > i L ^ L.!.Q.(.{. X X X}.}.OX}._.(.v.F 3 e ",
"7 : f V Z _ n.F.L.n.m.F.n.b.n.n.n.n./ Y 9 y e + o o @ X X o o o o o o o o o o o o o 3 i U ( P.W.M.~.}.}.{.{.{.{.}.}._.~.x.D 3 e ",
"7 2 f Z 8 V F.G.K.K.x.n.x.z.n.n.F.b.D.Q 0 e u y u u u u u e u t y y u e i y e e i g : u U I.C.Q.M.~.{.(.{.~.~.{.{.{.(.~.V.G 2 e ",
"7 > f Y a A F.F.G.F.n.b.z.z.n.b.F.F.n.Q 0 e e > > > : : > : > ; > > > : : ; : > : > : y F P.Q.!.Q.{.{.{.~.~.~.{.{.|.~.~.P.H 2 i ",
"7 : f ! f C ) F.F.m.x.n.b.b.b.n.n.G.) W 9 e e & % % & % @ = , = , , $ $ , , $ @ @ = > e D X.P.!.~.~.|.{.|.~.~.|.(.|.~.~.S.G 2 e ",
"4 ; w ! f V c.F.n.G.n.n.n.b.c.b.G.n.Q T p e t 7 e y 7 e e y y y i e e e e e e e e y > 8 C R P.Q./.~.~.|.|.Q.~.Z.).).!.!.c.Z 3 7 ",
"7 : f D j V A.G.G.G.L.n.n.b.b.n.n.G.b.W w i 4 + X X O O o o o + . . o . O O O O o o > e U G.P.!.~.~.~.|.|.~.~.~.).~.).!.v.Z 2 7 ",
"7 2 f S f D b.G.G.L.m.n.n.n.b.b.n.n.G.| w y e 7 e e e e e e i e e 7 > > e e e 7 > y > e U n.L./.~.~.~.|.~.|.Z.~.!.!.!.Q.N.Z 2 3 ",
": : f m D T ) G.F.n.n.n.n.n.z.m.n.n./ Y 9 e 7 , : : : ; ; ; : : ; ; ; ; ; ; = ; ; : > y C Q M.Q./.{.!.~.~.Z.~.|.(.!.!.W.c.N : 3 ",
"7 : f M ~ z.( A.I.F.n.F.n.b.x.n.n.n.| A w t e @ , = $ , , = , = , , , , , , , $ $ = > e C Q G.Q.~.~.Z.~.~.~.(.(.(.).!.!.c.Z 2 3 ",
"7 : f S ( z.x.z.n.z.z.x.z.z.) x.n.G.G.T 0 e e ; > > 3 3 3 > > > > > > > 2 > 3 3 > i - e B z.M.Q.C.Q.!.!.Q.Q.!.!.~.~.!.V.v.Z 3 7 ",
": : p M ) ) c.S.D.D.D.x.z.( ) c.b.G.G.W w e >   O   O                             . : r B c.P.M.V.Q.W.Q.Q.W.C.!.!.W.Q.V.v.Z 2 3 ",
"7 7 9 1 F ( _ X.z.) z.) ) _ _ ) ) b./ M 0 e y 7 3 > > > > > : > 3 > > > > > > > > i : 7 0 E S.m.L.M.P.N.M.M.V.V.W.V.V.P.^ N - > ",
"; ; 8 < 5 H E ^ ^ _ _ ~ m 5 R E E ^ Z 5 q 7 7 ; > : > : ; ; ; : ; : = : : ; = : : 7 & : 1 v H c.x.v.c.N.v.v.V.N.v.v.v.v.J 1 = : ",
"@ @ : < 1 1 b N N n b 5 * % < < < 1 6 * - & & o o o o o o X O O O o . o # # O # . @ @ $ < < 1 5 b 1 n m M M M M M M Z n v < # $ ",
"& % : & = + X X O O O O % & & & = = = = = = & & ; - = = = & $ & & $ & & & & $ & = = $ = @ , & & = = $ & @ . . # # . . $ & $ $ = ",
"& - : - * @ X o O O o X ; * & * * * - - ; - * & & ; = & - - & & = & & & = & = & & & $ $ $ , $ $ $ * & & * . # # # . . $ & $ $ $ "
};
