/* XPM */
static char *_4f7d37117d74e31ce34e83346a81849[] = {
/* columns rows colors chars-per-pixel */
"64 64 232 2 ",
"   c #1D1D1C",
".  c #171715",
"X  c #0F0E0F",
"o  c #211F1B",
"O  c #24221D",
"+  c #2A261D",
"@  c #1D1F20",
"#  c #1D2022",
"$  c #242423",
"%  c #292622",
"&  c #272925",
"*  c #2B2A25",
"=  c #26292A",
"-  c #2C2D2A",
";  c #252729",
":  c #312D25",
">  c #312E29",
",  c #2F312C",
"<  c #32322D",
"1  c #39362D",
"2  c #3A372C",
"3  c #2C2E30",
"4  c #2E3235",
"5  c #2E3538",
"6  c #333432",
"7  c #373833",
"8  c #3B3B34",
"9  c #323639",
"0  c #353A3D",
"q  c #3C3D3A",
"w  c #3A3732",
"e  c #1F201B",
"r  c #433E34",
"t  c #483926",
"y  c #3E413C",
"u  c #4D402C",
"i  c #59472A",
"p  c #43433C",
"a  c #4C493E",
"s  c #474337",
"d  c #574C39",
"f  c #5D523C",
"g  c #6E512C",
"h  c #78542C",
"j  c #68553A",
"k  c #785C38",
"l  c #634C2B",
"z  c #77613F",
"x  c #393E40",
"c  c #363E41",
"v  c #394041",
"b  c #434542",
"n  c #454943",
"m  c #4C4C45",
"M  c #4D4E4A",
"N  c #494943",
"B  c #544E43",
"V  c #504E49",
"C  c #4E514A",
"Z  c #4E5147",
"A  c #525146",
"S  c #53544C",
"D  c #5A554B",
"F  c #5D594E",
"G  c #585649",
"H  c #555951",
"J  c #5C5C52",
"K  c #545650",
"L  c #504E51",
"P  c #655945",
"I  c #6B5C44",
"U  c #625B4E",
"Y  c #6B5E4A",
"T  c #645643",
"R  c #625E52",
"E  c #6C5F53",
"W  c #705C46",
"Q  c #5D6157",
"!  c #6D614A",
"~  c #786447",
"^  c #646255",
"/  c #6B6454",
"(  c #63655A",
")  c #65695B",
"_  c #6B6B5D",
"`  c #696759",
"'  c #726D5D",
"]  c #776852",
"[  c #75715E",
"{  c #6A6C61",
"}  c #726E61",
"|  c #6D7063",
" . c #737263",
".. c #7C7C6C",
"X. c #7B7666",
"o. c #7F7F70",
"O. c #956C3A",
"+. c #8D693B",
"@. c #BA7929",
"#. c #A7773A",
"$. c #B47D37",
"%. c #A26F30",
"&. c #C97E28",
"*. c #CD7F2A",
"=. c #DD7E18",
"-. c #856B47",
";. c #8D734B",
":. c #997646",
">. c #8E744F",
",. c #A27D4A",
"<. c #A77B44",
"1. c #B27E42",
"2. c #837D6B",
"3. c #807A67",
"4. c #847E71",
"5. c #7E8071",
"6. c #B9833A",
"7. c #DA851B",
"8. c #E4851B",
"9. c #E38A1D",
"0. c #EB8A1B",
"q. c #E98617",
"w. c #F18A16",
"e. c #F4941B",
"r. c #FC9A1D",
"t. c #F7971D",
"y. c #EB921D",
"u. c #C4822B",
"i. c #CC842C",
"p. c #CC8426",
"a. c #DC8423",
"s. c #DC8A23",
"d. c #D3842C",
"f. c #D48A2B",
"g. c #DB8B2A",
"h. c #D68626",
"j. c #C48333",
"k. c #CB8B3B",
"l. c #C98836",
"z. c #D38C31",
"x. c #D88E35",
"c. c #DA9438",
"v. c #DB9028",
"b. c #E28C22",
"n. c #EA8C22",
"m. c #E28521",
"M. c #ED9A2A",
"N. c #E9942B",
"B. c #F49623",
"V. c #F59A23",
"C. c #FA9B22",
"Z. c #F39C2A",
"A. c #FA9221",
"S. c #E69735",
"D. c #F5A02B",
"F. c #9D825B",
"G. c #B38344",
"H. c #B4854A",
"J. c #BA8848",
"K. c #A98655",
"L. c #B48B53",
"P. c #B1894E",
"I. c #89836D",
"U. c #858274",
"Y. c #8A8672",
"T. c #8D8B7B",
"R. c #8C8877",
"E. c #928C75",
"W. c #928D7B",
"Q. c #95917D",
"!. c #9A957D",
"~. c #9B9478",
"^. c #918E76",
"/. c #A39A7E",
"(. c #C48C46",
"). c #CB934A",
"_. c #CA9347",
"`. c #DA9743",
"'. c #C89652",
"]. c #E09941",
"[. c #D7A04E",
"{. c #969383",
"}. c #9B9584",
"|. c #9D9A85",
" X c #9E9B89",
".X c #9B978A",
"XX c #928F80",
"oX c #A39C84",
"OX c #A39E8A",
"+X c #A99C86",
"@X c #AAA385",
"#X c #A5A28C",
"$X c #AAA58C",
"%X c #ADA98D",
"&X c #A4A085",
"*X c #B3AC8D",
"=X c #B3A88A",
"-X c #A6A491",
";X c #ABA692",
":X c #ADAB94",
">X c #ADAC98",
",X c #B3AD94",
"<X c #BBAD95",
"1X c #B1AF98",
"2X c #B6A996",
"3X c #AFB099",
"4X c #B5B195",
"5X c #BAB395",
"6X c #B4B39B",
"7X c #BAB69B",
"8X c #BDB99C",
"9X c #BBB899",
"0X c #B7B08E",
"qX c #B9B7A0",
"wX c #BCBAA2",
"eX c #B6B6A0",
"rX c #C2BC9D",
"tX c #C0B596",
"yX c #C2BEA2",
"uX c #BFC0A7",
"iX c #C4C19F",
"pX c #C5C1A4",
"aX c #C9C5A5",
"sX c #CCC8A7",
"dX c #C6C3A9",
"fX c #CAC6A9",
"gX c #CDCAAB",
"hX c #D1CDAE",
"jX c #D3D0AF",
"kX c #D2CEB1",
"lX c #D4D1B1",
"zX c #CECDB0",
/* pixels */
"+ 1 1 w 1 1 y y 2 2 2 y s 2 y 2 1 2 w w < : > * : : : > w 8 1 w 1 1 > : > > > : : : : : : + % : : : : * : * * + * * % % * * $ O ",
"@ O * * * & * * * : * * + * * : * * * : % + % O o o o % : * % $ = % * % : : : * + + % * + * $ * * * % % $ $ + $ + % $ $ % $   O ",
"- r j T ! z ! ~ ~ I T j I I I I I ! ! j T f d B d f d T T P ! b L G ] ~ [ ] I j P P ! ] Y Y ! ! ] / Y Y ! U P P Y ^ Y ! / A w = ",
"u O.6.J._._._.)._.(.$.J._.(._._._.)._.(.(.(.*.1.*.$.#.(.'.(.G.f P G.J.J.6.$.$.$.G.G.G.G.<.#.6.J.6.J.J.6.#.6.G.6.G.H.G.G.1.:.f u ",
"k @.u.l.S.S.S.c.c.c.u.v.c.c.c.c.c.].c.c.x.x.g.d.d.x.*.x.x.l.&.;.! j.l.l.z.k.z.z.z.l.j.@.@.@.6.i.z.l.z.l.j.u.j.6.j.j.l.l.l.$.-.k ",
"k @.u.g.D.Z.D.D.D.M.7.M.V.M.M.D.M.M.Z.M.N.n.8.9.m.n.8.0.m.a.p.:.] 6.d.a.b.b.b.s.s.s.v.s.p.7.7.s.v.v.h.v.f.p.p.v.f.i.&.p.d.6.O.k ",
"k @.&.7.V.C.C.C.r.t.y.r.r.D.y.V.V.V.B.B.B.e.w.w.q.0.=.w.0.m.d.:.Y &.d.8.0.n.n.m.9.9.9.q.7.7.7.9.7.9.9.s.b.9.7.b.s.h.7.h.7.&.O.k ",
"k &.s.B.r.r.r.r.r.r.e.r.r.C.V.t.B.e.e.e.e.e.w.w.w.w.w.w.0.=.h.<.-.j.g.m.0.0.0.0.q.0.y.7.q.q.q.9.b.9.9.9.8.9.9.7.7.7.7.7.p.@.%.+.",
"g i.N.n.C.C.C.A.t.e.t.t.r.r.B.r.C.C.V.t.e.e.e.q.w.w.q.n.=.m.p.#.+.*.d.a.m.m.n.n.n.=.A.=.q.8.7.9.7.y.9.9.7.9.9.7.9.7.7.f.i.u.%.g ",
"h z.v.S.N.S.Z.A.A.t.A.C.t.r.C.C.C.A.C.C.e.B.B.0.=.n.a.x.g.d.*.#.-.&.z.g.*.*.=.=.=.A.A.=.7.8.8.7.b.b.7.b.b.s.b.7.v.i.p.u.u.6.O.h ",
"k i.z.z.c.c.S.S.n.n.B.A.A.Z.Z.Z.Z.Z.Z.Z.M.V.M.y.b.b.&.*.k.l.&.:.] #.$.@.*.*.*.*.=.m.m.=.a.7.7.s.N.s.s.v.v.s.f.f.u.l.6.%.#.O.-.k ",
"t g +.k k :._.c.S.N.S.N.N.N.S.D.S.Z.S.S.S.M.S.N.c.z.%.l d l l i a f l l g 1.*.d.x.g.g.x.f.&.u.d.f.z.z.z.f.z.z.l.6.#.l l u u i t ",
"h -.F.K.>.W (.`.x.x.`.x.].].].].c.].c.].S.`.`.`.`.l.:.W :.<.#.~ I :.-.O.T O.J.*.*.).k.k.(.@.@.k.k.k.k.k.k.(.j.$.O.,.u +.#.;.z h ",
"h P.[.).(.~ J.).).).).'.).).(.).).).).).'.'.).'.(.J.;.~ L.J.1.-.+.#.1.1.Y :.1.1.1.(.J.H.1.#.$.H.P.J.J.P.J.P.H.G.1.K.I #.6.#.O.+.",
"g F.'.'.,.E L.1.J.(.L.'.(.L.1.L.L.L.K.L.L.L.L.H.1.<.;.~ 1.1.<.-.j 1.1.:.D ;.<.<.<.,.;.-.>.-.O.<.K.:.K.G.G.:.:.G.:.F.f :.:.:.+.l ",
"t ! -.;.-.E >.>.>.>.-.-.-.-.-.] W / / T Y ] ~ ] ~ W W j -.~ k f r j j T B T T T D T T B V B j k z z z z ~ ~ ~ ~ ~ ] a f G f s r ",
"G !.}.$X%X#XoX+X%X;X%X;X#X;X XU.' XX}.OX$XOX;X$X-X-X.XOX-X-X}.4. .I.^.^.|. X#X XT.T.|. X{. X{..X{.|.|. X|. X}.{.{.!.{.{.{.T...D ",
"J oXd $XyX-Xs :X8XuXpX8X4XuX8X{.2.,XrXyXyXyXqXyXqXyXtXqXqX2X>XXX..#X:X:X3X6X3X3X6X3X3X6X6X3X:X>X-X:X:X%X;X>X$X:X;X:X-X;X$X#XR.J ",
"F 5X&XwXfXyX#XpXdXzXdXuXuXdXwX X4.5XrXfXgXyXyXyXyXyXzXyXyXyXeXXXX.%X3X9XuX6X9XwXwXwXeXwXwXeX6XeX6X6X6X6XeX1X6X6X3X3X3X4X>X-XT.J ",
"F rXaXgXkXjXzXjXzXzXdXdXsXgXdX#XU.5X8XfXkXhXhXhXzXyXyXyXyXyX2X.XY.%X6X6XuXuXuXwXwXwXuXwXeXeX6XeXwXeX6X8XeXeX6X6X6X6X6X6X>X#XR.J ",
"U rXrXhXjXlXlXzXgXzXgXzXzXdXqX-X4.tXyXkXkXkXgXyXfXfXfXzXyXyX1X{.Y.%X4X7XuXuXwXwXuXwXuXwXeXuX3XeX X8XqXqX6X6X6X6XeX6X6X6X3X XT.J ",
"F tXaXsXjXjXhXhXfXgXfXgXgXzXyX-X4.tXyXyXkXgXkXgXfXfXyXgXyXyX1X.XI.$X4X7XuXwXwXuXwXwXeXeXeXeXeX3X#X:X6XeXqX6XeX4X1X>X3X6X>X#XT.F ",
"F tXiXhXjXjXhXjXgXgXgXzXzXfX$XW.E.tXyXkXgXkXyXkXzXyXyXzXdXyX2X.XI.$X,X6XuXwX6XuXeXwXwXeX3X6X3X6X3X6X6X6X6X6X3X3X6X1X>X4X>X#XT.J ",
"U 5XrXsXjXgXjXjXhXkXkXkXzXkXyXT.4.tXyXyXyXkXkXyXfXyXzXdXdXwX2XT.X.$X,X9X6X8XuXeXuXeXeX6XuX6X6X6X3XeX6X6X6X6X3X4X1X1X6X4X>X#XT.J ",
"^ 0XiXsXhXhXjXhXhXhX5XhXzXzXpX.X4.tXtXyXgXyXkXgXyXyXhXyXyXyX1XXX3.@X:X9X9XuX6XuX8X6X6X8X6X6X6X6XqXqXqX1X6XeX3X4X1X1X1X1X>XOXR.J ",
"F 0XrXaXrXrXiXiXsXjXsXhXgXfXyX}.4.tXrXyXgXgXyXkXhXyXyXgXyXyXeXXX..$X*X7X8X6X6X6X7X6X3X6X6X6X6XeXeX1XqXeXeX3X6X4X1X1X1X1X>XOXR.F ",
"U tX9XiXsXsXiXaXsXsXhXsXgXgXiX}.Y.<XtXyXyXkXkXyXkXyXyXkXfXyX1X{.I.#X*X9X9XeXwX6X6X4X6X6XeXeX6X6X1XqXeXeXeX>X3X>X1X:X1X1X:X XU.J ",
"U 5X5XiXsXsXsXsXsXhXhXjXzXgXrX{.E.<XrXfXhXyXgXkXyXgXyXtXqXyX2X{.E.@X4X7XeXeX6XwX6X:X3X3X6X6X3X6XqX1XeXeX3X3X4X:X1X:X,X>X:XOX..U ",
"U 0X5XaXsXsXsXgXhXiXhXhXhXsXuX{.W.,X7XyXgXgXkXyXyXyXyXyXyXyX2XXX^.%X:X9X9XeX9XeX8X6X6X6X6X6X3X6X1X1X6X1X3X3X>X3X>X:X>X>X;X XR.J ",
"^ 0XtXaXiXsXsXsXsXsXhXsXgXsX8X{.W.5XrXfXgXgXgXkXyXkXyXyXyXyX2XXX^.@X:X4X9X9XeXeX6XeXeX6X6X6X>X3X1X6X3X1X3X3X3X:X:X>X>X>X-X}.U.R ",
"J 0XrXiXsXhXsXsXhXsXgXhXgXuXuX{.W.5XrXdXgXkXgXyXkXkXyXkXyXyXeXXX^.@X0X9X9XeX3X9X8X6X6X8X6X3X>X6X3X6X>X:X:X:X>X:X:X>X>X>X>X XR.J ",
"J *XtXaXaXhXjXhXsXsXsXgXsXsX8X{.Q.,XyXpXgXgXyXgXyXyXyXyXyXyX2X.X~.%X3X3X3X9X3XeX6X6XeX6X6X3X>X4X3X6X1X>X:X;X:X>X;X:X>X-X-X XU.R ",
"! tXtXiXsXsXzXjXaXaXaXgXgXdX6X{.W.<XrXdXfXfXfXaXfXyXyXfXyXyX4X{.^.#X:X6X4X6X6X4X4X7XeX6X6X1X1X1X:X3X:X3X:X:X:X%X#X:X:X:X-X X5.J ",
"G /.iXsXsXhXgXgXsXpXsXgXgXdX7X{.E.,X8XaXgXfXyXaXyXfXyXyXyXwX1X{.^.&X;X4X7X6X>X4X6X6X1X1X1X:X:X>X%X>X:X:X:X:X-X-X#X#X-X;X#X{.5.S ",
"G =XtXiXaXsXsXsXaXpXgXgXgXfX8X XW.,XtXyXyXfXfXaXyXyXyXdXyXwX1X}.I.&X%X4X6X6X9X4X4X6X1X4X1X$X$X:X:X:X>X:X:X:X%X-X-X%X#X-X#X{.U.A ",
"F /.tXiXsXsXiXsXaXpXgXgXgXpXqX|.W.1X7XyXyXfXdXdXdXdXdXyXyXqX2XW.I.oX X:X1X6X6X4X,X6X6X,X,X#X;X>X:X>X:X,X:X-X#X:X#X#X!.-X-X{.U.D ",
"! %X5XrX8X9X9XaX9XsXsXsXpXpXqX X2.*X4XyXaXaXyXaXyXyXyX8XyXqX1XW.X./ Y.-X:X^.$X6X4X4X:X>X#X:X%X:X%X:X:X:X-X%X-X%X-X#X#X#X{.XX5.H ",
"G 9XiXaXaXdXiXgXaXsXaXuXpXpXwX|.2.%X,XrXrXaXyXyXyXyXrXyXyX7X:XT.X.) [ :X$XT.oX1X4X4X#X%X,X%X$X;X:X;X;X:X;X;X%X|.&X X#X-X XXX5.G ",
"G 9XiXaXgXzXsXzXdXaXsXfXfXdX6X|...@X,XyXaXyXyXyXrXrXrX8X8X9X:XW.X.!./.%X%X%X:X>X>X:X&X X$X%X$X;X-X%X#X#X-X-X#X X|.&X#X X XT...F ",
"^ 5XiXdXgXgXgXsXaXfXfXfXdXpXqX|...*X4XrXyXyXyXyX4X7X8X8X7X4X;XE.X.^.~.!.!.!.|.}.!.!.!.^.Y.Q.Q.Q.Q.Q.^.T.^.Q.T.^.T.^.^.XXT.U.X.^ ",
"U 4XrXiXsXgXaXsXaXsXaXaXfXyX7X{.X.$X5X9XrXrXrXrX7X=X/.9X7X4X%XT.F / / / E / / ' E / ` E E / ^ / E U U E R R R E Q ^ R R F L U U ",
"F ~.%XiXrXiXpXpXrXaXiXaXfXyX6XQ.3.@X<X7XyX7XrX7X9X/.,X5X4X4X&XU.3.+X$X$X2XtXtX2X2X<XqX2X<X2X2X<X2X2X2X2X2XOX2XOX#X:X2XOX.XXX4.F ",
"G /.5XiXiXaXpXiXaXiXrXrXyX8X:X{.2.+X,X9XtX7X5X@X4X@X@X5X4X%X&XX.>.+X=X0XtXtXtXtXtXtXtX2X<X2X<X<X2X2X2X=X2X+X=X+X@X+X2X2X+X+X4.F ",
"A /.0XtXtXtX5X9XiXrXtX9X9X1X$XE.' oX=X4X5X*X,X*X*X=X@X%X%X%X X' } /./.+X+X+X+X+X+X+X=X+X+X+XoXoXoX/.+X}.oX}.!.}.oXQ.}.}.}.4.} L ",
"s ~.E.*X0X/.E./.*X*X/.@X=X$X#XW.' ~.@X=X=X@X@X@X+X/././.Q.~.}.` B U E Y U R Y R U U E U R F U E U Y F B F U F U D D U U D V B a ",
"u I.3.~.E.I.[ /./.~.I.~.Q.Q.Q.2.] 3.E.Q.W.E.E.I.I.I.Y.2.Y.E.R.m N } } } ` [  . .} } ] ' } } } } ' } } ` } } } { ^ ` / ` } E r r ",
". + : + + : : + * + : * + * + + $ % % + + + O O + O + O + + o % o o o o + O O O % o % O O o o o o o o o o o o o o   o o o . . . ",
"X .   & + & * : & * $ $ $ $ ; $ $ $ $ $ o o o o @ @   @ @ $ @ . .   o % $ $ $ ; ; - = - = ; @ o O $ = ; = - = = = ; ; ; ; # . X ",
". $ , 5 5 5 5 4 4 5 9 4 - 4 9 9 6 4 4 5 - = = - - = ; ; = 3 3 @ $ 3 - 3 5 9 9 4 5 5 0 9 5 4 = 4 9 4 9 4 5 c 5 5 5 4 4 4 5 = # . ",
"# # 4 9 y v v y v 0 v 0 0 7 x q 0 0 0 0 0 9 9 6 5 4 3 - - 6 5 ; - 9 8 8 q x 0 0 0 0 c c x 0 4 y x c c c c v c c c 5 9 0 9 5 3 # ",
"* 1 a m S S a Z C m S S J Z M M A Z C A Z Z p y N b 7 7 w 8 q < r M s N M m N N N C C M N b v m M M n L M M m n v r b b N v 4 - ",
"$ r r a a s y s p s s 8 8 2 8 q y q q y y q < 1 w w < - * < < , < > + < 1 1 2 < 1 < < < , , , < 6 < 6 < < w - < - - - - - & $ $ ",
"q U ( ) _ ) ( ) ) Q Q J Q Q Z Q J Q Q ( J ^ H S K H S n S S C S S C S S K H H C Z S C S K S C C L S K K K K C S Z n m m M n y y ",
"N ( { ..X.5.5.5.5.5... ...| |  .| { | | |  .) ) ^ Q Q J Q Q ) ) ` ^ { ) ) ) _ ) ) { ) ) ) ( H Q Q Q Q ( Q Q Q Q Q S H H H C n n ",
"< A G Q ( ( ` ) ) ) ` ( ` ( ( F S D D J J J S Z A m A a Z Z Z Z A m M m Z A C A m m m A Z p p N N p N a m N p p p y p p p y 0 < ",
"= 7 6 y y y y 2 7 q 7 6 7 8 7 7 6 6 w 8 0 6 , , 4 6 6 = , & , 6 < = 4 6 6 6 , , 1 6 9 6 7 - - < < , < , 4 , , , , , , , , = * = ",
"y Q Q {  .5._ / ) | ) J J ) ) { Q ( _ { ) ) J H Q Q H Z C H H H G H H G Z Q H S H S H A K C n C K S S H K L K m n Z M n n n v p ",
"y a G Q ( R ( F ^ ^ R F R J H J D J J Q J J J J F J G S D A H A A S F D S G S C A C K H S C p N N m C Z m m N M Z m p p q p y y ",
"& * : , < 8 q q q q 8 8 r q r q q q q q p p p y y y 8 8 7 y 8 < < w 8 y 8 y 8 8 q 8 8 8 7 w , < 6 w 7 6 w 7 7 8 7 7 7 , < = - * ",
". . .   O O $ $ $ % @ $ ; % % % % $ % * & = * $ $ $ O e @ O       @ @ $ $ & $ $ $ $ & $ $ @   @   $ $ $ # $ $ $ $ = $   $       ",
"e . e O - w < < w < * - 6 < w w 6 > w w < 1 < - , : , , , = * $ O e $ & * & & , * = = * * * $ $ = < - < > 6 - 6 6 > > = & = $   ",
"  . e O $ = = * < = O $ - < 6 < < - 6 6 , - - - , < , 7 < 7 6 , - O $ , & + * - - * < < * = O * - , , - - - - < - - - * * = $   ",
"< , < 6 < < < 6 6 6 - 6 < < 6 6 6 6 7 w 7 9 7 6 6 7 w 6 6 7 6 6 7 6 6 6 6 6 7 7 6 6 6 6 6 4 3 6 6 6 < 6 6 < < < 6 6 < 4 < 6 < 6 ",
"6 4 , < 4 < < < 6 < 3 < < 4 6 w < 9 7 w 6 6 6 6 7 7 6 6 6 6 6 6 7 6 6 6 6 , 6 , 6 6 6 6 < < > 6 6 < 6 6 6 3 < 6 6 < 6 4 < 6 > < "
};
