/* XPM */
static char *f22b9f0676a14d5f9601c0e14552d468[] = {
/* columns rows colors chars-per-pixel */
"64 64 220 2 ",
"   c #282517",
".  c #3B2E13",
"X  c #332C1C",
"o  c #372C18",
"O  c #3E3215",
"+  c #3A321B",
"@  c #2E302A",
"#  c #3A3323",
"$  c #34342D",
"%  c #383428",
"&  c #3B3B34",
"*  c #3D3E3A",
"=  c #363631",
"-  c gray17",
";  c #41320F",
":  c #433514",
">  c #493716",
",  c #41351B",
"<  c #453A1C",
"1  c #4B3C1C",
"2  c #493A16",
"3  c #513E13",
"4  c #513D1A",
"5  c #453B22",
"6  c #4A3B27",
"7  c #433F34",
"8  c #3E403B",
"9  c #59420E",
"0  c #4E411D",
"q  c #554013",
"w  c #54431C",
"e  c #5C4A1C",
"r  c #5B4718",
"t  c #674B0F",
"y  c #7A570F",
"u  c #6B4E13",
"i  c #634E1C",
"p  c #654A15",
"a  c #6C5315",
"s  c #6B541C",
"d  c #6A551B",
"f  c #735413",
"g  c #745A14",
"h  c #7C5D13",
"j  c #73561A",
"k  c #735B1B",
"l  c #7A5D1A",
"z  c #7B5612",
"x  c #7C6215",
"c  c #7D621C",
"v  c #77621D",
"b  c #4C4222",
"n  c #4E432D",
"m  c #48442D",
"M  c #534422",
"N  c #564925",
"B  c #5C4C24",
"V  c #54452C",
"C  c #554A2F",
"Z  c #5C4A2D",
"A  c #5A4623",
"S  c #424137",
"D  c #43433C",
"F  c #4A493E",
"G  c #4B4638",
"H  c #544A32",
"J  c #5B4C32",
"K  c #554A36",
"L  c #5E5134",
"P  c #624E22",
"I  c #645124",
"U  c #6B5523",
"Y  c #6D5922",
"T  c #66532B",
"R  c #725C22",
"E  c #7A5E21",
"W  c #625135",
"Q  c #655539",
"!  c #7D6322",
"~  c #7B6428",
"^  c #444542",
"/  c #4C4B43",
"(  c #4C4D49",
")  c #474842",
"_  c #514E45",
"`  c #4F514A",
"'  c #555345",
"]  c #595646",
"[  c #54534B",
"{  c #58564C",
"}  c #5C5A4C",
"|  c #5E5A46",
" . c #555651",
".. c #575952",
"X. c #5C5C53",
"o. c #5A5953",
"O. c #615D4A",
"+. c #615E53",
"@. c #605F58",
"#. c #5F6057",
"$. c #66604D",
"%. c #69634F",
"&. c #636156",
"*. c #6A6553",
"=. c #6F6955",
"-. c #64645A",
";. c #69665A",
":. c #6B6A5D",
">. c #67685F",
",. c #726D57",
"<. c #736C5A",
"1. c #77725C",
"2. c #6D6C63",
"3. c #6E6F68",
"4. c #716E63",
"5. c #6F7069",
"6. c #6F7167",
"7. c #737165",
"8. c #7A7664",
"9. c #73746B",
"0. c #7B766A",
"q. c #7C7A6D",
"w. c #76796C",
"e. c #767671",
"r. c #7D7C71",
"t. c #777870",
"y. c #865D0D",
"u. c #825E13",
"i. c #855D1A",
"p. c #895E1A",
"a. c #8E640F",
"s. c #946A0F",
"d. c #9C6D0E",
"f. c #93670D",
"g. c #9D740E",
"h. c #97700F",
"j. c #846315",
"k. c #8A6515",
"l. c #8B6915",
"z. c #83651C",
"x. c #8B661B",
"c. c #856A1D",
"v. c #8B6A1B",
"b. c #916615",
"n. c #936C13",
"m. c #996D12",
"M. c #926C1C",
"N. c #936819",
"B. c #9C7513",
"V. c #95711D",
"C. c #9B751B",
"Z. c #9D781A",
"A. c #987515",
"S. c #8E701F",
"D. c #A36D0B",
"F. c #A4730D",
"G. c #A9760D",
"H. c #AB790D",
"J. c #A37A0F",
"K. c #A37613",
"L. c #A97613",
"P. c #A67914",
"I. c #AB7B14",
"U. c #A3761C",
"Y. c #A57A1C",
"T. c #AA7D1B",
"R. c #A87719",
"E. c #B07F11",
"W. c #826522",
"Q. c #856A23",
"!. c #8B6B23",
"~. c #866B29",
"^. c #896D2A",
"/. c #926C22",
"(. c #8B7022",
"). c #957322",
"_. c #9B7622",
"`. c #9B7922",
"'. c #A57C22",
"]. c #A97D21",
"[. c #A37D29",
"{. c #817D6E",
"}. c #827E72",
"|. c #7F8074",
" X c #AE8115",
".X c #AD821C",
"XX c #A7811C",
"oX c #B28314",
"OX c #B1851C",
"+X c #AD8322",
"@X c #AB8526",
"#X c #B08522",
"$X c #B08826",
"%X c #858175",
"&X c #898476",
"*X c #86857D",
"=X c #8A8679",
"-X c #8C897C",
";X c #8D8870",
":X c #938C74",
">X c #9A8E73",
",X c #928D7C",
"<X c #9B9276",
"1X c #94907E",
"2X c #9D947A",
"3X c #9F987F",
"4X c #928B6E",
"5X c #A2947C",
"6X c #A1997E",
"7X c #8C8B81",
"8X c #888780",
"9X c #918F82",
"0X c #949185",
"qX c #999585",
"wX c #969588",
"eX c #999589",
"rX c #9C988A",
"tX c #8F9082",
"yX c #A49C82",
"uX c #A7A085",
/* pixels */
"+.} } } } O.} ] } } } ] } } ] ] ] } } } | ] } } | | $.} X.} } } | } } ] K K ' } ' ] ] ] F F ' ' [ ' _ ' ..] ] ` ..' ` ` ' ` ' } ",
"% w.w.w.q.q.}.w.q.{.q.r.w.w.w.w.t.r.r.q.q.q.q.r.%X|.|.%X}.r.}.}.|.|.q.w.w.w.q.w.w.w.|.6.>.} 9.6.6.7.9.6.6.6.w.6.6.w.e.5.|.6.6.$ ",
") -X=X-X7X7X9X9X0X9X,X7X*X*X-X-X7X7X7X7X0X0X9X,X0X0X0XqX0X0X9X9X9X7X0X-X-X-X7X-X-X7X-X*Xw.-.|.|.r.*X*X%X8X8X8X|.|.8X*X*X|.|.|./ ",
"[ =X7X0X0X9X9XwX0X0X9X7X-X7X0X0X0X0XwXwX0XwXwXwXwXwXwX0XwXeXeXeXwXwX0X0X0X0X0X7X-X-XtX8Xw.>.|.*X*X8X8X*X|.8X8X8X7X8X8X*X7X7X|...",
"{ -X7X0XtX0XwX0X0X0X7X-X7X7X0X0X0XwXwX0X9XwXeXeXeXeXeXwXeXeXwXeXeXwXwX0X0X0XtXtX7X7X-X-X9.-.|.*X*X8X8X-X*X8X8X8X8X7X*X*X8X8X*X..",
"..7X0X7X0X7X0X-X-X7XtX7X7XtX7X0X0X0X0XwXqXwXeXeXrXeXeXeXwXwXeXeXeXwX0X0X0X0X0X0XtXtXtX-Xe.2.|.*X-X*X*X*X8X8X8X7X8X7X*X*X8X-X*X{ ",
"{ 7X9X0X0X0X0X7X-X*X*X7X7X8X7XtX0X0X0X0X9XwXeXeXeXrXqXeXwXwXwXqXwXeX0XtX0X0X7X0XtXtX7X7X5.2.|.*X8X*X*X8X8X7X8X8X8X8X-X8X=X=X*X{ ",
"{ =X-X9X0X7XtXtX7X-X*X*X*X-X7X7X7X9X7X9X9X9X9XqX9X9X9XeXwX9X9XwX0X0X0X7XtX9X7X-XtX-X-X8X5.#.|.*X8X8X8X8X8X8X8X8X8X*X8X*X-X*X%X[ ",
"{ ,X9X9XqX9XqXqXqX0X1X1X-X,X1X0XqX0X1X0XqXqXqXqXrXrXyXyXeXeX5XyXwXqX1X1X1X1X1X0X1X-X1X1Xq.:.=X-X-X7X9X-X7X9X9X7X7XtX7X7X-X-X&X[ ",
"{ <X2XyX6X3XyXyX6X6X6X3X2X<X<X<X5X5X5XyXyXyX6X6XyXyXyX}.yXyX5X}.3X3X2X<X>X4X:X<X>X:X:X4X8.<.;X:X1X,X:X1X,X1X1X>X,X1X:X-X:X1X;X} ",
";.O.*.<.<.*.=.<.,.%.*.,.%.| O.*.=.+.=.{.=.+.,.{.{.%.{.{.=.O.{.$.,.,.&.$.=.$.| O.=.*.| | ] ] O.O.=.*.| ;.<.,.+.*.<.;.| *.:.=.| ;.",
"' $ 7 @.{ = 7 @.{ & S &.' = $ ' { = K @.[ $ { ;. .,  .;.{ # { o._ #.8 $ X.[ * * #.[ 8 8 X. .7 D X.{ & / -.X.& _ &.[ $ ` #. .$ K ",
"= ] { @.+.{ ] &.@.} } &.X.} F / +.+.+.@.+.' ;.+.;.{ ;.@.+._ {.;.#.8.+.[ o.o.X.[ #... .{ X.@.X...X.#.X.&.-.2...-.&.-.{ #.X.>.[ $ ",
") {.4.F { 0.2./ { 0.2./ [ w.} & +.{.2.F *.{.;.7 ;.}.7.7 {.{.}.{.&.%X}.9./ _ 0.4.` ` 9.:.) ] 0.:.) X.{.2.) -.q.4.F ;.|.4.8 ;.{./ ",
"[ @.-.+.X.+.@.o.+.-.&.X.X.-.[ / +.;.;.+.+.+.;.{ ;.;.4.{ ;.+.{.4.O.}.;.:.&.+.;.;.&.} ;.&.&.X.;.;.&.&.;.:.&.-.-.:.#.:.-.7.X.:.&.` ",
"` 7 [ 0.4.^ [ 9.2.F ] w.:.) F ;.2._ +.{.2.7 @.}.:.7 ;.{.{.7 ;.{.O.9.F ' {.7._ _ w.:.F ' 0.<./ } {.7.F #.q.2.F *.|.7.S ;.%X4.& [ ",
"` ..#.&.&.....&.@.@.@.;.@.@.[ _ ;.@.;.2.2.@.4.+.;.{ ;.+.{.{ {.;.&.8.;.-.;.*.&.O.;.-.#.O.&.;.&.*.=.:.&.;.-.:.-.:.:.7.#.:.;.4.} ` ",
"( t.9.) ` 9.-./ _ {.;./ { {.o.7 o.}.4./ @.}.4.7 ;.{.2.7 ;.{.{.{.$.%X%Xq.F F {.7.F K |.4.F } }.7./ &.}.7.F -.|.w.F :.%X7.8 ;.%X_ ",
"( &.-.X.X.X.X.X.o.@.@. .o.@.[ ^ +.@.-.@.@.@.;.+.;.@.@.( @.+.{.2.} q.;.;.*.X.&.&.+.} -.#.$.X.&.-.#.&.&.-.#.-.#.2.#.>.#.-.} ;.} / ",
"( & ^ >.&.* * 2. .7 * @.[ 7 7 [  .7 ( -.} = { @._ =  .@.{ % _ o.F @.D 7 -.+.& * #.{ & S &.{ & F -.{ & / #...= ` >...= ' -...@ / ",
"^ * ^ [ ` 8 ^  .( * ^ ( ( ^ * ^ ( * )  .( * ( ` ^ * (  .( = ^ ^ ( { ) ^ o. .^ D [ ` ) ) ` ( D ) ..` ^ / ..../ [ X...) [ #. .) ) ",
"& 3.3.3.e.3.3.2.;.2.3.3.3.3.3.{.9.3.9.9.3.9.3.3.3.{.{.3.2.@.{.{.9.9.e.e.e.e.3.9.5.6.5.5.2.:.:.4.e.9.w.e.t.e.e.t.r.t.t.w.t.t.t.& ",
"- &X}.=X&X}.t.0.{.{.}.&X=X=X=X=X}.}.}.}.}.}.8X}.=X=X=X=X=X}.=X=X=X}.8X-X-X-X&X&X&X&X%X%X}.}.}.&X=X&X&X%X*X&X-X=X*X-X-X-X=X=X8X- ",
"( =X=X&X=X&X}.}.}.}.&X}.&X=X=X=X}.8X=X=X9X7X=X7X=X,X,X=X,X=X=X,X}.&X=X-X:X=X-X-X-X-X=X=X&X&X=X=X=X-X-X-X=X-X;X=X-X-X-X-X=X*X&X( ",
"/ =X=X=X}.,X}.}.}.,X}.}.}.=X=X=X}.9X7X}.-X-X-X-X,X,X=X,X,X=X=X=X=X=X}.9X,X}.qX,X-X%X%X%X%X&X=X-X-X&X&X;X-X-X=X-X-X-X=X-X-X&X&XF ",
"[ &X=X=X-X-X}.9X}.}.,X}.}.=X=X=X7X}.}.9X=X=X=X8X=X,X-X-X,X,X=X=X}.=X9X}.}.qX,X}.%Xq.%X%X&X-X-X-X-X&X-X-X;X-X-X-X-X-X=X=X=X&X%X' ",
"[ =X=X&X7X}.8X}.-X}.}.}.}.=X=X,X}.9X9X}.=X-X-X-X=X,X-X=X=X=X}.}.=X9X=X-X9X}.}.9X=X-X=X=X%X=X-X-X-X-X-X-X-X%X=X-X&X=X=X&X&X%X%X' ",
"[ =X=X}.}.=X}.}.}.}.}.}.=X}.}.}.}.}.}.9X-X-X}.-X=X-X=X}.=X5X}.}.=X}.7X-X,X,X0X}.=X=X=X=X&X=X-X-X-X-X=X=X=X=X=X-X*X&X&X&X&X%X%X[ ",
"[ }.}.&X}.=X}.}.}.}.}.}.}.}.}.,X}.}.}.}.,X}.}.}.}.=X=X=X}.}.}.}.}.}.}.}.-X-X=X=X=X=X=X&X&X*X*X&X-X-X=X=X=X=X=X=X=X=X%X*X%X%X|.[ ",
"{ }.}.}.}.}.}.}.}.}.{.}.}.}.}.}.9X}.}.}.}.}.}.}.=X}.}.}.}.}.}.{.,X}.yX}.}.,X}.=X&X&X%X*X&X&X&X-X;X&X=X&X%X&X=X=X=X=X%X*X%Xr.t.' ",
"_ }.e.q.}.{.{.}.{.{.{.{.}.{.{.}.}.}.}.}.}.{.{.}.}.}.}.}.}.}.}.{.}.}.}.}.}.}.}.}.;X%X&X%X&X%X;X&X=X;X;X|.&X-X*X*X&X&X%X%X|.%Xr.' ",
"_ 5X<X5X5X5X>X2X>X5X>XqXqXyX}.yXyX5X5X5XyXyXyX5XyX5X5X5XyX}.5X5X5X}.5X}.yXyXyXyX5X5X5X3X3X3X<X2X2X2X2X<X<X<X2X3X<X<X<X2X2X:X4X( ",
"/ H C Z J J L T W L Z L L L J J K K Q Q Q L W W W K Z Z Z C Z V Z Z 6 n C C C J J L J J Z H H H Z H n H C C m C C H G H C m m _ ",
"O.  X i M X O i w   : d M X < s N + 0 U N X M d N X w d N   r U q A X o i B # , d B + < U e # 1 s B X 1 d A X w a A   r v M   O.",
"% r u y h f f y g f g i.l a j h c j l c Q.k W.W.Q.j c c c.d l.C.u.i.j j c z.R k W.z.! k c c v v j.z.k h z.z.g l x k.a j.x v.a + ",
"X x.l 5 9 d.h 2 t d.u.0 a m.l 4 a B.! B v A.~ b c C.Q.1 c B.Y.'.i.b.m.M.A i Z.(.B d C.!.B d Z.v.B j Z.c.w k B.z.1 h g.c 2 j.J.  ",
"3 h y a y j.y t f u.u.u y u.z u g j.W.E c.S.Q.! c.v.(.k c.z.Z.Y.x M.v.v.v v !.!.! ! S.!.! v (.!.! c S.v.k j.l.v.k c.l.l.k j.l.q ",
"9 2 p f.h 2 t f.u.2 t m.l q u m.z.e l _.! w c C.! 0 z.).! 1 c.T.c x.N p C.(.T s `.(.I U `.!.T R `.Q.B v Z.c.w v Z.!.0 j.B.c., 9 ",
"9 g y y h f f u.g g f u.h g g x v k l z.!.! c.W.!.a c.v c.a N.Y.z.v.v g z.c.~ R (.Q.~ ! !.!.! ! Q.~.~ ~ c.v.v c.c.S.v c.c l.g 9 ",
"9 K.l.< t h.j.4 u d.h w a l.x 0 a n.l A v C.! 0 ! n.Q.1 c A.B.U.c A.Y.(.A s `.!.B d XX^.B k Z.!.B v `.~.B z.Y.v.A k.Y.(.b x XX9 ",
"9 x j r a h h d a g g i t g g i a l k g v c.Q.a l c ! d ! l M.C.l k.k.c R j W.! k R !.Q.R l c.c k c c.c.k x c.c.a c.j.!.k c c 9 ",
"q X 1 a i + 2 a e + 2 a r O q g e 2 p v U 5 U ! T < s l T , s z.i s 5 w ! R b r c R b e ! Y 0 e c Y 1 i z.Y 1 i c U , d x U O 9 ",
"3 X + 0 < + + b 0 X + 0 < X + r 0 + w I B 5 M B Z < N I Z < M P w w 5 0 I B M 1 I B 5 b B B 5 w I I b M I B 0 e I B < N I N b 2 ",
", e d a a a a a a d g a i w r g h x c c c c c c W.c W.Q.W.c ! i.z.z.z.Q.~.~.Q.Q.~.R s W.! z.z.z.Q.!.c.!.c.Q.!.!.Q.Q.c.c.!.! Q.O ",
"  l.n.g.g.g.g.g.g.g.g.h.a.x f.H.oXoXoXOXOXOXOX.XT..X.X.X+X+X#XT..X XOX#X+X#X#X+X@X`.v.XXY. X.XOX+XOXOXOXOX.X.XXXXXXXXX.X.XC.`.  ",
"  l.m.J.J.J.F.J.g.g.g.g.h.x f. XoXoXOXOXOX$X$X$X#X#X#X$X$X#X#X#X.X.XOX#X#XOX#X#X@X_.k.XXXX.XOX#X#XOX.X.XOX.XXXXXXX.XOX.X.X'._.  ",
": l.d.K.g.J.g.g.g.g.g.g.h.x h. XoXoXoXOXOX.X.X@X@X$X$X$X$X$X+XOX.X.X#X+X#X+XOXOX].V.j.T.+X.X+X+X].OX.XOX.X#X@X.XXX X.X.X.X.XY.O ",
"2 j.N.B.F.J.J.J.XXg.g.g.n.x f. XoXoXOXOXOX.X.X@X#X@X@X@X$X+X+X+X.X.XT..X#X#X.XT.T.V.j.T.+X.X+X.XOXOX.XOX.X.X.X.X X X XXX.XXX.X: ",
"2 j.n.B.K.K.g.P.K.g.K.B.v.g k.G.H. X XOXOX.XXX+X+X.X@X@X@X+X+X+X+XT.T.T.#XT.E.OX.XV.j.T..X.X.XT.I.I.oXOX.X.X.X X X XI. XT.I..X2 ",
"O j.s.K.g.K.P.g.K.P.B.B.v.l k.L. X X X.X.X.XXX+X+X.X#X#X+XT.T.+X+X.XT.+X#XOXT.T.Y.V.y..X.X.X.X.XOXoXoXI. X X X.X X X XI.P.I.I.O ",
"o k.B.B.B.h.B.B.g.B.B.C.M.j.n.I. X X.XOX.X.X.X.X+X#X#X]..XT.T.].].T.T.+XT.#XT.T.Y.V.j.I. XoXI.oXoXI. XI. X.X.X.X.X XI.T.P.P..Xo ",
"O l.s.n.B.s.s.d.B.m.B.n.l.h l.P.P.T.T.Y.Z.Z.P.Z.U.'.].].Y.Y.U.'.U.R.Y.U.Y.T.U.U.Z.n.u.K.L.R.L.R.I.P.I.I.I.P.T.Y.Y.Y.Y.P.U.K.K.O ",
"; k l l l h x l u.h l v k s j z.z.!.x.~.! l z.c.z.!.!.!.!.x.z.i.z.z.W.x.k.c.W.z.z.l a k.j.k.k.k.l.k.v.j.v.v.v.!.v.v.c.k.j.j.z.; ",
"; w e e e e r e e e e B M < 0 e i B P P B B B I T U T T T P P P P i P P I I U U T I P P i i e i P s s s U s Y Y Y Y U U U U I O ",
". h j.z.j.j.k.j.j.k.j.z.R i d z.W.z.c.Q.W.Q.Q.~.~.^.^.^.~.W.Q.c.v.x.v.!.Q.!.!././.!.!.!.W.W.z.z.v.M.n.M.V.V._._._._.).).).M.V.. ",
"X B.K.K.P.P.U.L.P.P.P.Y./.k k.A.C.Z.Y.'.Y.].`.+X[.[.[.[.'.'.Y.Y.I.T.T.T.'.].].[.[.].'.'._._._.R.I.I.I.I.I. XXXT..XY.XXXXY.P.I.X ",
"  P.P.P.L.L.L.E.I.I.H.L.m.z p.U.I.T.T.T.Y.P.Y..X].[.'.'.'.'.].R.I.I.T.T.T.].].].].].].#X].].R.T.I.L.I.E.T.E.T.OX.X.XXX.XI.I.I.  ",
": G.G.G.H.G.L.G.L.F.G.G.m.u.k.L.L.I.I.I.I..X.X.XY.U.'.U.'.'.'.R.T.T.T.Y.T.T.T.].].].T.T.T.R.L.E.H.H.E.H.E.I.I.T.T.I.I..XI.I.G.: ",
"> g.D.G.H.G.D.G.G.D.G.D.f.y y.G.G.L.H.L.I.Y.I.T.P.Y.Y.U.R.'.'.].T.T.T.T.T.I.Y.Y.R.].T.E.I.L.L.H.H.H.H.H.E.L.I.I.I.T. X XI.H.H.> ",
"2 b.b.G.G.D.G.D.G.D.D.G.f.f y.G.G.H.G.F.L.L.P.P.I.I.U.U.'.R.'.].Y.R.R.T.T.I.Y.T.T.R.I.L.L.L.H.H.H.H.H.H.H.G.G.L.I.I.I.I.I.I.L.2 ",
": k.b.D.D.D.D.D.D.D.D.L.f.u y.D.G.G.G.F.K.D.L.L.R.P.K.U.U.R.U.R.R.T.Y.T.Y.T.R.R.R.I.I.L.G.G.G.H.H.H.H.H.H.H.H.G.L.L.L.I.I.K.P.: ",
", i.N.d.D.R.D.L.D.D.D.D.y.p y.D.D.D.D.F.D.D.K.L.L.D.D.K.U.R.'._.'.Y.Y.I.L.P.R.R.R.R.L.L.G.G.G.H.H.G.H.H.L.L.G.G.H.F.L.D.P.B.n.: ",
"> T R E p.p.p./.p.p./.p.R 4 p z b.N.N.N.x.N.N.x./.N./.x.N.x././.!././.M.V.M.M.M./.N./.N.N.N.N.N.N.N.N.M.M.x.M.x.M.N.x.N./.W.E + ",
", 7 7 6 K 7 6 6 6 6 6 6 6 % 6 6 6 V V C V C C J Z Z W J Z J J C Z J J Z J Z Z Z Z Z P P W Z C H K V H H J N Z M V V V Z Z C V , "
};
