/* XPM */
static char *_41b1e4cec1a4288beec8c166fb7a338[] = {
/* columns rows colors chars-per-pixel */
"64 64 220 2 ",
"   c #0E0C0B",
".  c #120D07",
"X  c #120E0C",
"o  c #1A0E0B",
"O  c #0E100D",
"+  c #14110E",
"@  c #1B120D",
"#  c #151412",
"$  c #1A1613",
"%  c #171815",
"&  c #1C1915",
"*  c #161A19",
"=  c #1C1B1A",
"-  c #131719",
";  c #100F10",
":  c #23150D",
">  c #2C180E",
",  c #29150D",
"<  c #341A0D",
"1  c #3B1C0D",
"2  c #331709",
"3  c #231611",
"4  c #231B15",
"5  c #2A1C14",
"6  c #231E1A",
"7  c #2A1E19",
"8  c #281710",
"9  c #341D13",
"0  c #391E12",
"q  c #331D19",
"w  c #1E201E",
"e  c #24211D",
"r  c #2B221C",
"t  c #2E2419",
"y  c #342115",
"u  c #3C2215",
"i  c #33241C",
"p  c #3A241A",
"a  c #35281E",
"s  c #3D291D",
"d  c #3C200E",
"f  c #1C1F21",
"g  c #1D2123",
"h  c #1D272B",
"j  c #242422",
"k  c #2B2522",
"l  c #272924",
"z  c #2B2A25",
"x  c #232A2A",
"c  c #2C2D2A",
"v  c #21272A",
"b  c #322621",
"n  c #342A24",
"m  c #3B2C23",
"M  c #322E2A",
"N  c #3B2E29",
"B  c #3C2220",
"V  c #353126",
"C  c #34322C",
"Z  c #3A342C",
"A  c #3C392D",
"S  c #39352A",
"D  c #252D31",
"F  c #2C2F31",
"G  c #2C3233",
"H  c #2C363A",
"J  c #2B393C",
"K  c #273234",
"L  c #343432",
"P  c #3A3632",
"I  c #363834",
"U  c #3C3A34",
"Y  c #343B3B",
"T  c #3C3D3A",
"R  c #323638",
"E  c #2E302D",
"W  c #41200D",
"Q  c #58240D",
"!  c #432516",
"~  c #4B2614",
"^  c #442619",
"/  c #43291C",
"(  c #4C2B1C",
")  c #4A2817",
"_  c #542916",
"`  c #57311D",
"'  c #65331D",
"]  c #763419",
"[  c #612F1B",
"{  c #422D23",
"}  c #4C2E21",
"|  c #422F28",
" . c #4C3226",
".. c #43352C",
"X. c #4A332A",
"o. c #433A2E",
"O. c #473429",
"+. c #5C3423",
"@. c #5C3826",
"#. c #523629",
"$. c #5B3628",
"%. c #543C2E",
"&. c #563627",
"*. c #423C34",
"=. c #4A3C34",
"-. c #423E3A",
";. c #473B35",
":. c #573D30",
">. c #643623",
",. c #6D3B24",
"<. c #6B3D29",
"1. c #643C28",
"2. c #763B22",
"3. c #3E413E",
"4. c #464134",
"5. c #4A4537",
"6. c #44423C",
"7. c #4A443D",
"8. c #4D493C",
"9. c #514B3E",
"0. c #58453A",
"q. c #5D412F",
"w. c #6B412D",
"e. c #333C41",
"r. c #2C3E44",
"t. c #3C4344",
"y. c #3A4549",
"u. c #36454A",
"i. c #3B4C52",
"p. c #374852",
"a. c #3F5459",
"s. c #444442",
"d. c #4A4642",
"f. c #464845",
"g. c #4C4A45",
"h. c #4D4D4A",
"j. c #454A4A",
"k. c #534B43",
"l. c #514E4A",
"z. c #504742",
"x. c #4E514D",
"c. c #54524D",
"v. c #56534A",
"b. c #444E52",
"n. c #425056",
"m. c #42545B",
"M. c #4A575A",
"N. c #555553",
"B. c #595652",
"V. c #5B5A55",
"C. c #5C5D5B",
"Z. c #555A58",
"A. c #625E58",
"S. c #5E615B",
"D. c #64635B",
"F. c #69665C",
"G. c #6A695E",
"H. c #646459",
"J. c #4B5E63",
"K. c #455C64",
"L. c #4D636A",
"P. c #52646C",
"I. c #556265",
"U. c #556C72",
"Y. c #5A6E74",
"T. c #5B737B",
"R. c #5C7475",
"E. c #4E6972",
"W. c #656562",
"Q. c #696663",
"!. c #676963",
"~. c #6B6B64",
"^. c #6D6D6A",
"/. c #606D6F",
"(. c #726C64",
"). c #716F6A",
"_. c #6E716C",
"`. c #73726D",
"'. c #69787A",
"]. c #747573",
"[. c #797A76",
"{. c #7B7D7A",
"}. c #787874",
"|. c #616F73",
" X c #817F7D",
".X c #7D807E",
"XX c #81807C",
"oX c #697D83",
"OX c #607980",
"+X c #67848D",
"@X c #7D8381",
"#X c #75878D",
"$X c #788D93",
"%X c #7B949A",
"&X c #858B89",
"*X c #888A86",
"=X c #89908F",
"-X c #91938E",
";X c #8B9595",
":X c #939692",
">X c #959E9A",
",X c #9C9D99",
"<X c #959A96",
"1X c #A09F9B",
"2X c #9FA29E",
"3X c #A2A29E",
"4X c #86A0A6",
"5X c #95ACB3",
"6X c #9BB4BA",
"7X c #9FA4A0",
"8X c #A2A7A3",
"9X c #A8ADA9",
"0X c #ACB2AE",
"qX c #A5B0AC",
"wX c #AAB6B4",
"eX c #B4BCB8",
"rX c #ABBEC3",
"tX c #A9C2C6",
"yX c #C5CBC8",
"uX c #C7D6D6",
/* pixels */
"I -.-.T L G c z c Z ;.P ;.=.P s.V.6.-.*.T T T s.f.6.T g.N.c.g.6.N.B.N.l.-.;.6.6.-.T ;.g.-.s.g.B.!.C.f.T 7.7.6.-.-.d.d.l.V.C.W.^.",
"].7 p X e *.s.j X 8 ^ 3 1 <.X M &X$ t 4 6 ; @ U f.e # m a & + I V.# # $ 6 & 7 4 & + b o.$ & S C.:X^.w # r { 7 6 6 a { 4 & $ 6 Q.",
"].r {   + e 7.e.f 5 ^ 3 9 <.o P 7X% 5 7 j # # Y f.j # { m w $ 6.Q.$ # & r 3 i 4 = + a o.& & n V.<X_.e $ 7 { i 6 7 B { e = = 6 Q.",
"{.q { # + $ e P L q ^ 3 > <.o P 7X& p q k & $ T j.e & { s e $ V f.& 6 6 e 6 b 6 e @ t o.$ 4 S C.8X}.k & i  .p e 7 | o.z x j 6 ^.",
"[.q m $ $ X X l s.m p 3 0 w.: A 8X= i 5 t # $ 3.f.e $ m a w @ 8.Q.& @ 6 6 7 m 3 # @ t o.$ & S G.eX@Xe 4 t &.a 7 7 ;.=.c x j e ^.",
"}.r N ; ; X $ L N.N s : 1 +.o I 8X$ q 7 e   + U f.w + n a $ + 3.B.# + & r 4 m & + @ p q.: & A _.yX@Xe $ t { 7 6 k =.l.G J D j `.",
"[.k P $ $ # $ U Z.N { 3 1 +.o U 9X7 q r k + + 3.f.j # m V = + U c.$ # 6 e 6 N 4 $ $ W w.4 e A ~.yX@Xc % t / t e k z.A.J.%XE.c `.",
"oXB ;.$ $ $ $ T C.P m 3 0 1.+ 6.0Xj i t n & & U s.e & m a & & 4.C.& & r b 6 N 6 % % ~ 2.> & S !.yX@Xc & t O.b 7 b z.I.U.wX+XG ).",
" Xk P # $ = $ -.Z.N i 3 0 $.# -.,X6 i 7 k $ # U 6.6 + m a % + V d.# @ 6 7 6 n 6 4 # ! ,.> & S H.eX.Xz $ a { i e k z.A.p.P.p.z ).",
"[.7 n X $ * o P Z.N q @ < 1.o P ,X$ 5 5 r X + U s.= X p i # + o.c.# O @ 7 $ i 6 & o u :.3 & S F.0X{.e & r m r e 7 #.0.c v f e ^.",
"}.7 k $ 4 6 + L j.b B @ 1 <.o P :X& 9 i Z 4 & C g.l & } / 6 & V f.& & 6 k 4 t 7 e @ ! 1.4 & S !.0X].e 3 r m r r b } $.M C c e !.",
"^.7 b $ & $ X l F r i 3 1 [ o M {.& t i *.6 4 C l.C $ / { 6 & 3.V.4 & t b 4 i t t @ ~ ,.> & S D.0X{.k 4 r n r r b / } k c j e G.",
"^.6 7   ; X * l j 4 q @ 2 Q   e C.# 5 7 c + + e c.3.+ t t # @ 5.Q.# + & r @ t 7 6 . ! >.8 & A D.wX{.e & 7 q 3 6 6 y a $ + + & D.",
"].7 r     = c = # 4 a $ 0 +.o C =X= r r E = * = C f.l r e # + l P # O $ 6 $ e 4 & + ! >.: & A H.0X].e + 7 a & $ $ ^ / $ # - & F.",
"].7 q   & c g ; ; 4 n 4 q &.+ U >X= b c Y w g = 6 C P N k = $ 4.V.# # # & 3 i & # + p $.3 @ V H.wX.Xg + 4 p 4 # + ~ ~ 4 = % & G.",
"[.7 q # j j ; ; = r m & 5 #.@ U >X= n c u.H a.p.w # & N P L c I g.C s.s.I m  .A Y k / $.t w A F.qX@XI C N { ..T C +.$.6.h.s.C ~.",
"oXq q c 3.f ; 3 g r m 3 5 1.: U :Xw n L p.U.uX5Xe.f $ b 7 # + n s.# % % $ 5 / % % @ t ( @ : 4.(.wX.Xg O 3 ..t & + ! ! & = & & F.",
"`.7 q M h.R ; 6 6 7 n 6 ! <.@ C .X= n L i.i.%XY.D j & n k - # U N.# ; o $ 7 m $ + + t 3.@ @ 3.G.eX.Xj O > { e + # ! ^ & # - & D.",
"`.7 q M Z.T - l c k m 3 q } @ E ].% r k Y f v v f = $ b b $ # z M $ # 6 7 7 } 6 % @ a q.4 4 A F.0X.Xj # 5 p 6 % $ p s % & $ & F.",
"}.6 q L I.e.v R Y P Z $ 5  .o A &X% a k c l x F z j & b r & # P l.& 6 e k q #.6 w & a q.4 w A H.8X{.l & 6 m a r 6 n m 7 e e e H.",
"`.7 7 T |.y.F u.J I Z 4 y %.+ U ,X= N k f g j z k = - m b % + U h.$ $ f 6 p #.6 % & s q.4 4 3.H.2X.Xl $ t { r 4 4 b b = # # 6 H.",
"~.7 e 3.'.b.J.%XL.I T 6 y q.@ *.,X6 ..n = = % j j & # n n % @ C s.$ * $ * s #.6 % @ ) w.4 4 V H.3X[.r $ t { r 6 6 b n 6 % - e F.",
"D.4 r t.oXm.U.5XU.Y 3.6 u %.@ *.,Xj ;.F g g = c c & - N m * % 4.A.* * = = n #.e & $ ~ 2.> 4 A H.2X_.e $ t { r r 7 k N = & * e F.",
"`.6 e t.oXa.u.K.J G U 6 0  .+ 4.3Xg I c K H g c c $ # B b & $ P h.& v x w a O.& & $ W ` : 3 V B.XXG.e $ 7 B 6 e 6 r n = 6 % e G.",
" X7 e 6.oXn.J.%XK.I -.8 1 } + *.1Xj I e.oX$Xu.G E % # b i & $ U C.f J.OXF N :.4 $ $ y  .$ $ V 8.}.c.= $ 7 i 6 6 6 i n 6 6 = 6 F.",
"{.r e 3.'.n.R.6XU.Y ;.6 W ,.@ U :Xe d.b.4X5Xi.G G % # { m * $ 6.B.f E.oXe.P z.6 - $ s %.3 4 S 9.}.B.= $ 7 n 7 6 4 a { e = = 6 D.",
"`.6 e T /.y.H a.H F *.4 W 2.o U =X= Y L p.n.v c z $ # / a $ # -.C.j J.OXD -.l.= # # a =.$ 4 A A.*X!.e @ 6 a 6 6 4 r b 6 = % = D.",
"`.6 e C I.t.K e.R P ..5 1 ,.@ A *X6 L M G G G F c e 4 m m 6 & 4.Q.x T.$XK P h.= o + a ..& 6 A H.-X^.e & 7 n e r 7 a n 6 e = 6 D.",
"^.4 4 c h.L * = = r n @ 0 1.o C (.$ k j v = = = & $ @ n t # # z e.f m.U.D L 3.$ + + t *.@ e A H.-X!.e @ 6 a 5 & 4 i m 4 $ + & D.",
"!.6 6 l T l + # # = i @ 0 :.@ n c.$ 6 3 = # & $ $ - + b k # o A g.f OX;XF c T $ + X a o.@ & S H.-XQ.= @ 5 m t & 4 p 0 e & + & A.",
"V.6 6 6 c j f 6 f 6 r : u } + M ].$ 7 7 j g k j j j % B i = % A f.v i.K.H N P 6 % @ a o.& & S S.:X!.e + 3 s r 6 6 i i e = # 4 D.",
"C.e Z I T -.-.t.Y N n 4 0 ~ @ A  XM L P -.s.f.s.6.6.C N N P z k -.e.I.|.J.s.;.C I z s O.e e S S.2X].E z 4 t & = 6 i a r r e e F.",
"A.4 6 - = % % % - 8 7 @ 2 ( . C ].# 6 $ - # $ $ $ # + 7 e # + 7.Q.= = = = 4 n $ + + a O.$ e A F.2X_.g w e n e & 6 i i t & + @ H.",
"V.$ @ $ j * O O   3 5 o 2 _ . C ).+ 4 # +   X + o   . t 5 + + U s.# # ; ; 4 7 $ + + t N @ $ S H.;XD.w O $ N Z e $ 7 r r & # & D.",
"N.= 6 j C l j j j l M e B ..6 C Q.7 k 7 & X X 4 = X X t r + # C z.# ; # $ 7 r j e e V A e w S F.-XH.e e k n C 6.c V N C z l e D.",
"g.P P s.f.s.g.l.h.c.h.c.N.B.l.6.A.l.B.N.z.P 4 6 7 & & b r $ # *.c.# & L -.-.6.g.x.x.S.S.A r A F.-XS.E 8.N.v.B.V.V.V.V.B.V.N.6.F.",
"g.6 6 e k c r e j j k e b n e A B.z M U V.(.7.4 $ +   r k + + M L & P -.k k k k l l V a & 4 V v.[.N.w 6 r z k M c n M l l e e D.",
"Z.& &   $ e c =   o 3 o : 0 . A {.# 3 $ = 4.(.7.- X + r k # $ ;.s.M P = ; o > $ @ O > ) @ % t 8._.V.6 + @ 4 & z z M P K n.r.= D.",
"V.6 r   X % c I w @ 7 @ < ) o *.*X$ 5 $ $ 4 A.`.z   X b b # # 4.l.L $ ; = 8 0 7 e @ ! ` : e S V.-X}.U + & a 6 I L -.x.U.tX+Xc F.",
"C.6 i % + + & z x 4 5 o < ` o U {.$ p 4 & @ A (.6.# + b r + e l.l.& X & 7 8 ^ 7 e @ ) 1.> V 4.G.<XXX6.+ 6 N r U I 6.x.L.;XE.x ~.",
"W.4 i + # X   j L 7 4 o < ) X C W.& 7 8 &   k ~.c.- ; q 5 = -.c.N.# # & e > ! 7 6 $ ^ >.> V 4.G.:X{.6.+ 6 m e U U ;.g.G G h j ^.",
"W.7 n # # ; # l R r 3 o 2 ( o C Z.# 8 $ &   6 A.c.$   8 i R c 6.Q.$ + 4 6 3 0 7 6 + ^ >.4 V 4.H.*X}.-.; 4 N e U I ;.z.c j = t G.",
"C.6 M - - # X l R 7 8 @ < ` o C C.F P L L l c B.l.l j n -.F $ ;.Q.& $ & 6 , u 6 e @ ^ $.4 a A v.^.D.I X 6 N r C C *.z.c g * e G.",
"C.7 M # +   ; 6 l 6 8 @ 1 ) o A B.h.l.g.d.-.-.l.l.T I *.M $ o L d.& 6 6 e , u 5 6 @ ^ @.@ w a A 6.T = # 4 b e C C *.g.Y u.x w F.",
"B.6 m O   # = = # $ 4 : < ~ o U D.e k j j f f 7.d.e % 6 $   + C g.# # & e , y 6 w $ ) @.3 & a 8.D.V.w + 4 b 6 C L -.b.Y.tX+XE F.",
"N.6 z     = e -   $ 4 @ 1 _ X A ~.+ e g K J J g.c.=   6 6 + + 4.B.# o 4 e 3 y 6 6 @ _ ] : e S V.{.!.e # 4 b 6 I C T h.L.5XT.x F.",
"B.4 6   = j -   ; $ 4 @ 0 }   c h.* M F a.R.P.c.B.e X k r # + c ;.; X $ 6 , q 4 6 @ ~ ' 8 e A H.;X].l # $ a 6 I I U 6.F J D e H.",
"V.4 $ % w = $ e k k i : > ( X e c.$ L H i.D G g.N.j # b z O # 4.d.+ & 7 a 8 p r r e ( +.$ 4 4.S.&X_.E 7 6 s t C P Z 5.j.M.t.c H.",
"C.$ & z e.g # & - 6 7 # 5 #.o z ^.& F G e.f j v.V.j X b 7   + *.h.$ + $ 4 , q 8 $ O y O.@ 4 3.S.&X^.j + 8 &.i C c a p z 6 - % A.",
"C.6 6 F M.e.f F h z k 4 7 | + C ].= M L K.K.M.c.V.j ; 7 7 $ X z L ; # & 4 3 y 4 e + ) ` @ : 3.S.&X_.c # 3 ( t C z a i j = & 6 F.",
"N.4 4 U I.i.Y.4XK.F M 6 7 b X U ].& M c i.P.J.l.l.6 X k e   + U C.- # & 7 4 u 6 w o Q ] > t 8.G.&X_.L $ 3 p 6 L l p p k 4 - e D.",
"N.4 7 L J.a.#XrXP.F M 7 5 { X S ^.& c c H - = z.l.= o k t + + C T - # & 7 5 u 7 e @ Q ] , w 9._.<X^.6 l & p k L e u ^ b j $ 6 F.",
"Z.7 7 L M.t.K r.h k n 3 9  .. V `.* k l c + 6 9.l.6   7 e # + A l.& # = e 5 ! 7 e @ Q ] : t 9._.;X_.6 & 4 B n c 6 u ! b 6 $ 6 F.",
"B.4 5 F M.Y # # # = e $ > / . z W.$ k k z # 6 k.v.6 X r e X + P f.$ % % e > u 3 w @ Q ] : e 9.~.;X}.g + = m k 6 & p p k 6 * e F.",
"N.6 6 c j.F # $ = e z r m o.e U ^.& k e z # * k.Q.c   e r & $ C T 6 z z l y ) t e e _ ] 4 t 5.~.;X].v & 6 { r $ & y i k 6 & e F.",
"N.6 8 k T l - c I I U T s.s.3.6.].= n z G - & 4.(.P + t b l j ;.N.c Y T S ! ( V I a _ ] t z 8.~.=X].z = 6 { 7 & 4 u u b 6 * e !.",
"N.8 4 j M j c C j e 7 6 7 k = I _.* n c t.H F C F.v.e 7 4 # # Z -.# % = & < ! 3 % $ ~ ' : e 8.~.=X^.j   @ p 6 4 4 u 0 b 6 - 7 Q.",
"N.$ $ $ j F c * # $ 3 o @ 6   c W.% z G n.P.M.g 5.F.8.b 4   X A 6.O   X $ : < $ # . 1 ( @ e 5.!.=X!.* o 3 q 3 & $ 0 < 8 & ; & Q.",
"x.l j k F M $ # # 4 q o , { o z S.= z c y.m.y.= r ;.z.k.z.d.T d.V.T s.6.6.7.z.f.s.*.7.7.z r 5.G.&XC.M L 7.k.d.g.g.k.k.l.f.6.U ~.",
"s.c M F z $ + # # , q @ < { o C C.$ k c Y H x l c & 6 C ;.7.4.d.c.g.V.B.v.c.V.A.B.c.v.g.A r 5.S.@XC.C -.l.B.c.V.V.B.A.V.c.g.7.Q.",
"e.& $ = 6 * O # o , 0 : < } X C S.# e e c * & e L *   & 4 & = *.d.6 e e e e r k e e a a & & *.S.oXA.& 6 7 r e e e t k r e = e A.",
"h.$ $ = c j #   ; @ < @ 0 ` o c W.* 7 4 w O + l I * O t 6 X X z c X ; $ @ @ 3 & # X 6 a + & A c.[.A.& + : u 3 @ + 8 t + # # & F.",
"h.4 : 6 c *   X X @ > @ y ) o V S.# 5 @ =   + c L & + t 7 # $ U f.+ o # @ $ t @ $ X t N $ & U c.^.B.* + 3 0 @ # + 5 t $ - # & F.",
"I -.;.Y L C c c c P *.P *.=.P 6.V.6.4.U 3.3.3.s.f.T 6.f.B.l.g.-.B.B.N.c.6.6.s.4.3.T ;.g.6.6.h.B.Q.C.s.-.=.7.6.6.4.d.7.l.V.C.!.~."
};
