/* XPM */
static char *_e291d4ff7014e519d8f0c66e7930203[] = {
/* columns rows colors chars-per-pixel */
"64 64 75 1 ",
"  c #23231F",
". c #2B271D",
"X c #29281E",
"o c #252521",
"O c #292622",
"+ c #262824",
"@ c #2B2B24",
"# c #2D2E29",
"$ c #312C23",
"% c #332F29",
"& c #2F312B",
"* c #323126",
"= c #33332D",
"- c #39352D",
"; c #3C392E",
": c #353632",
"> c #393731",
", c #373834",
"< c #3A3B34",
"1 c #3C3D3A",
"2 c #473D2E",
"3 c #423E34",
"4 c #4B3F31",
"5 c #403F39",
"6 c #3E403B",
"7 c #434236",
"8 c #4C4235",
"9 c #43433C",
"0 c #49463B",
"q c #47493C",
"w c #4B4A3E",
"e c #544A3C",
"r c #454641",
"t c #494742",
"y c #474943",
"u c #4A4B44",
"i c #4C4E49",
"p c #514D43",
"a c #514E4A",
"s c #4F5046",
"d c #4F514A",
"f c #525245",
"g c #595547",
"h c #53544C",
"j c #59564C",
"k c #57584E",
"l c #5A5A4D",
"z c #4E5150",
"x c #545651",
"c c #585752",
"v c #565952",
"b c #5B5C53",
"n c #5C5E58",
"m c #61564B",
"M c #625C4E",
"N c #625E52",
"B c #625E59",
"V c #5E6056",
"C c #5E6159",
"Z c #636255",
"A c #696556",
"S c #6E6857",
"D c #64655A",
"F c #696659",
"G c #67695D",
"H c #6A6A5D",
"J c #706D5E",
"K c #646760",
"L c #666861",
"P c #6C6C62",
"I c #716F64",
"U c #706F68",
"Y c #6F7064",
"T c #787671",
"R c #817D77",
/* pixels */
"=@@$*6X*666&&6=6666qqqqsww6 XX X*X++++#+@@*@@#@@++O+$$O%=>,,:>%@",
"@733wwqqwqsdddkskklZAAGGHG66*666s*:<<<669ww099<<<,,553-3tidfuha@",
"$777ww6wwfkklVVVkklDZHYYYHlw66*8w66699qyuggey99<115993-5ahjxatp#",
"#8qqwq6wllkkVGVVVlVVZGPYHHVwq667wq7qqqjuufgp0yy11r515<>5aaxcaty%",
"&q7qwwwfVVVVAADVDGDDVGGGGZlefq*6ewyuuflhaufgyry999r111,9hcbnBha#",
"@7qqswwwlkbZDGAVZGDGVZGZGGZfkw66qqyuuuffuihjury19r19r11rnFGKPFc#",
"X7qqwwwslllZZGGVZGZGDGGZCGGlfw6*wwuhiuyyihhitr956yr5911rZHIUIFB@",
"*77wsuywVlkVZGGVGGDGVVGGHHGgks6600fxfiiuihatyry9yy99rr1rZHUPPBD#",
"=66wuyqqZlkVVGGZGHGGGGGGPHAllg7;0pfhdsduuxiyyr19ur99it,7bFLLPFT%",
"=77yusyulkkVVGGGGGHGGGHJJJGVlg7*0ufhdyirudiyuuyy99r9ri17vCCDLGR#",
"=q7yyuskGlVlVGGZGGHHHHJHPPGllgq6wsffdiyuyuuyy9r9yryry95wbZZZBBU#",
";77qqyukZVVVVGGGHJHGGHHHHHHlkg77esffsiyy9uuuy5rr9yrr9r8eNZbNlcB,",
"676qrrqfkkkkVGZGHHHGGAZAHHHlkgq6swekssyrr99yy9rr9995988eMNNjghl>",
"766qqqqsksskkZGZASSAGHGAHGAlgkwqewwesssrrr9yr559r558344eMNAgphc3",
"q66q666qsswflAGAAAAASSZSZSZgewfqq778wswqyyy999175<538328MAMhp0B<",
"7$@@&&XX6=*667q6626q66q77766;6-=6$XXX*6*=##@@@@+Oo.O.$..233<5<t<",
"7@&&#&+#&#&,,666:=&##66*66=6=6*@**&&=:<<,&#&@#%#@@%%%%%-2-<><<<<",
"7klbkkkVCxCKGGYYYCbkbVDGGGGHAHGgbZVZGPPPLnvvbbkjhfjMNAMMNASNbnb=",
"7lllVvVVbnCCCKPLGGGCGGGHGPGPSHMwbZZDGLLYLCvnVblkgglMNNNNASAFkhp=",
"7llbVVVvCnCKKLKKGCGGGGYYGGGPPGfwZFFGPHGUKvvbnvkhlllZNAAASHJANji#",
"6llbVvvVbnnKKKKKGGVGGGGGGGPPHHlwlFZDGGLKCnbcbchkkjlMMNNZAFZBjjh#",
"qllbvVvvbvbCnCKKVVGZGGGGGGGGGHVwlZbZBDPZnbccxxjhjllllNlNNNZNjjh*",
"qgkkxVvxxvvnnnnBVVDGZGHGGCZGHGlwlGVbbnKnnxxxxhxjghjllklNNNNNhgj:",
"6gkkxxxxxcnnvnnnVVDGDZZGGZZGHGVwllVbnnDncxxzxhjhfffMNMMclbNlfhh<",
"qffkhhhxcnbnbbnnCCVGCGVVVVGGGAlqkknbbnnccxaiihhfppgjmmmmlcBjhff<",
"qekkhbbbbnnbbbbbVVVVCVVkVVGGGGlqhbbncnnbcxziaahhhgagggjjcbbbkhu<",
";kkkbbbbbnnbbbbbVCCCCVVVVVVGGHlqkxbnxnbcxzzifhhhjjjajljjcbbbZhy:",
";kgkkbbbnnnbbbnnVCCCCCCCVVVGHHVqhbxbxvvxxxzzdhhfhjgggljllcjNVfd:",
";kkhlbnnBZVVbbbbkVCCCCCCVVVZGGlwxnvzxvnvzxzxifhhhjggglljxjkblfi<",
"6gkhvbnCVDVbbxxbvvvvvvCCVGZVVGVwbCvvnCKnvxvzhahfjjhpflglhhNbkhi<",
"-gkkkbbbVVVVbxbbvCvvCvvCVZGGVGkwhZnvvnnnvxxxddhahhffhjllbhBbxzi:",
"*lkskbbbbVVnbxxcVvvvvvvCVVGGVVk6hZnvnvnvnxxxzdaihxshjglkxjbciyr+",
"<lkkhvbvbbbnbbbbVVvvvvVvVCCCCVh7hCbbvnbnnxxzddddxdhxhxbbhxbciyr#",
"*kkkkxcxbbbbvvVbVCvvvvvvvCCCvvs7hCvbvbnvvvzvzddddxddshhbxbnbiyr=",
"XgkfhkchhhbhkbbbkVvvvvvzxvCvvCx6fbbcxvxvvvvzvzddddddsskvcxbhirr#",
"Xkhhhhxhhhkkhbbbvkkzkvvkzvvvvvdqaxxxvvvxvvvnxddishddshkvxbbxaiy#",
"Xhhhdhxxhxckklblkvxxxxxdzkkvvvdqdkkxxvxxvvvvziiidddzzskhxxccxhi:",
"*kdkhxxhxhjbkblVvvkxkzkddxkzkvzqhdxxxxzxvvvdiiyyiiiiishhhxxccha=",
"-kkhhhxddhjbkbbnVkddddkddzzkkvzwfsdvxxxxvvzduiyiyiiiiiizxxxccaa>",
":hshhhhhdfjlbkkxhxxdzddddvkddVzqsdxxzxvxhdddyiiiiiyyiyyyahaxhap,",
"=ffhhkhxxhkblhxhdxdhxdiddxvxxxiqddddhxxddhxisiuuyiyyyyyyaidxxfa<",
"&fhhvvxxbvkNbhhfddddhsudddzdzxs6sdddhzdddddsdhzdiyiyiyrruiiiiip&",
"&gkhhhhhxhkljcfaisisdiudiddddxy6sddddiiissddiifirrrryrrrttuupu0#",
"#khfhhjhhhjjghiiiuysiidudduudzy6idddyyyyyyididhsyrrrrrr5yyyyuuu#",
"@fhhfffiiuppptuuuyyihuuuyusddi6<uiyyyyysuuyiiyswyirrr9rryr5rtpt#",
"@ffsufputppfppuiuyyuyyyyyyudsu6:6is666ydurr6rq9qyrrr995rr51r900#",
"@fwwwuuqtpppeptpy99y9y9r99yyyy1=6q6666yyr6666666955559551155598#",
"XX@@X@@@OOO...O@%$@+@+@O+@@@@+  @o+Xooo o ooo     oo  oooo.Oo o#",
"+%&*%####OoO-><3155115616616666&,,,,<,1 +oo+oo +%==>,,1>31<<=%,@",
"X96<,>,,>1>3pjaaiiiuuuuuuuissdzsdushhhZ<,:::,:#:5iitrrtzaiait<r@",
"X11<<111>,>0pagahxhdhihxhzhxsvswvdihhxD<,,,:,:#,yiiayziiaiziiii#",
"X1,<,1,<,>>9gjjcxxddhhdddiddhdswsdhhhhB>::::,,:,yiaiiizziziiir6%",
"+<<,,,,<<==9phghhhiiddusiidddzuuhusxaac-:,,,,,:1uaaiuyyizyyyir1:",
"$-=::,,,,<<0pppfhhuuuuuuyyidizuusiiszih=,,,111:ruuyiyyiytrzrt61%",
".-=,:>,,=<;0epphuuyuyyyyyuydyzyyssuszrz#,11111,rutuyiyyyrrrzrr1%",
"$=,,::,<,-<0uppfuuyuuuuuyuyuyzyufuyuzzr#:,,,611riuyyyyyyryrzyr1%",
";==,::,<::-9wpppuuyyuuuuyyyiydykxdyssxy@,,,,111zrzyzyrrzrzzrrr,:",
"7<<,::<,;==0pupuuuyyyy9uyyyidzyhhussrry+#:::11,yyyzyzrrrzrrry1::",
"3<<==,,<6:-7euw0yuuqyy9yyyiddziwdiyqrr6+&:::,,#rzrzrrrzrrzrrr1,1",
"3<1,=,,,--:0uppuyyuuuuuuyyiddvs6dduuy66o#&&&,:#1yirzrrrrrrrrr11:",
"<<<-,:=*==@9pppuyyyyiiys6yskxVyqddir666o####:,%9yrrrrrrrrrrr111:",
"<<<<,<:==@o<uquuyquuyyssyysdkky6szy6666o+###,,=5rr6rrrrzr111r1:1",
"0<-<:==%#@o<9909666qqr6q66ydskq6yy6666:o+++#::%>crr6r1r1,,111:#,",
"Z@&&@#++@+o#=:==&::&::=*6&&6&6&#&&#++++oo oooOoO,&=#####++OOOOOB"
};
