/* XPM */
static char *result[] = {
/* columns rows colors chars-per-pixel */
"64 64 47 1 ",
"  c #242E1A",
". c #223116",
"X c #25351B",
"o c #2B341D",
"O c #27381E",
"+ c #29381E",
"@ c #35371F",
"# c #313D1F",
"$ c #2D3720",
"% c #2B3B21",
"& c #323D23",
"* c #3A3820",
"= c #334226",
"- c #334429",
"; c #3B452A",
": c #3F492C",
"> c #384730",
", c #42462F",
"< c #4A452B",
"1 c #444B2D",
"2 c #494F2F",
"3 c #434631",
"4 c #464B34",
"5 c #494E36",
"6 c #474D38",
"7 c #494F39",
"8 c #4B5134",
"9 c #4C543B",
"0 c #4F583D",
"q c #525636",
"w c #565837",
"e c #51553C",
"r c #55593B",
"t c #5A5B3A",
"y c #605F3D",
"u c #62613F",
"i c #535C43",
"p c #5C6147",
"a c #646240",
"s c #696643",
"d c #6D6946",
"f c #716B47",
"g c #746D49",
"h c #77704B",
"j c #7A724D",
"k c #847953",
"l c None",
/* pixels */
"llllllllllllllllllllllllllllllllllllllllllllllllllllllllllllllll",
"llllllllllllllllllllllllllllllllllllllllllllllllllllllllllllllll",
"llllllllllllllllllllllllllllllllllllllllllllllllllllllllllllllll",
"llllllllllllllllllllllllllllllllllllllllllllllllllllllllllllllll",
"llllllllllllllllllllllllllllllllllllllllllllllllllllllllllllllll",
"llllllllllllllllllllllllllllllllllllllllllllllllllllllllllllllll",
"llllllllllllllllllllllllllllllllllllllllllllllllllllllllllllllll",
"llllllllllllllllllllllllllllllllllllllllllllllllllllllllllllllll",
"llllllllllllllllllllllllllllllllllllllllllllllllllllllllllllllll",
"llllllllllllllllllllllllllllllllllllllllllllllllllllllllllllllll",
"llllllllllllllllllllllllllllllllllllllllllllllllllllllllllllllll",
"llllllllllllllllllllllllllllllllllllllllllllllllllllllllllllllll",
"llllllllllllllllllllllllllllllllllllllllllllllllllllllllllllllll",
"llllllllllllllllllllllllllllllllllllllllllllllllllllllllllllllll",
"llllllllllllllllllllllllllllllllllllllllllllllllllllllllllllllll",
"llllllllllllllllllllllllllllllllllllllllllllllllllllllllllllllll",
"llllllllllllllllllllllllllllllllllllllllllllllllllllllllllllllll",
"llllllllllllllllllllllllllllllllllllllllllllllllllllllllllllllll",
"llllllllllllllllllllllllllllllllllllllllllllllllllllllllllllllll",
"llllllllllllllllllllllllllllllllllllllllllllllllllllllllllllllll",
"llllllllllllllllllllllllllllllllllllllllllllllllllllllllllllllll",
"llllllllllllllllllllllllllllllllllllllllllllllllllllllllllllllll",
"llllllllllllllllllllllllllllllllllllllllllllllllllllllllllllllll",
"llllllllllllllllllllllllllllllllllllllllllllllllllllllllllllllll",
"llllllllllllllllllllllllllllllllllllllllllllllllllllllllllllllll",
"llllllllllllllllllllllllllllllllllllllllllllllllllllllllllllllll",
"llllllllllllllllllllllllllllllllllllllllllllllllllllllllllllllll",
"llllllllllllllllllllllllllllllllllllllllllllllllllllllllllllllll",
"llllllllllllllllllllllllllllllllllllllllllllllllllllllllllllllll",
"llllllllllllllllllllllllllllllllllllllllllllllllllllllllllllllll",
"llllllllllllllllllllllllllllllllllllllllllllllllllllllllllllllll",
"llllllllllllllllllllllllllllllllllllllllllllllllllllllllllllllll",
"llllllllllllllllllllllllllllllllllllllllllllllllllllllllllllllll",
"llllllllllllllllllllllllllllllllllllllllllllllllllllllllllllllll",
"llllllllllllllllllllllllllllllllllllllllllllllllllllllllllllllll",
"llllllllllllllllllllllllllllllllllllllllllllllllllllllllllllllll",
"llllllllllllllllllllllllllllllllllllllllllllllllllllllllllllllll",
"llllllllllllllllllllllllllllllllllllllllllllllllllllllllllllllll",
"llllllllllllllllllllllllllllllllllllllllllllllllllllllllllllllll",
"llllllllllllllllllllllllllllllllllllllllllllllllllllllllllllllll",
"llllllllllllllllllllllllllllllllllllllllllllllllllllllllllllllll",
"llllllllllllllllllllllllllllllllllllllllllllllllllllllllllllllll",
"llllllllllllllllllllllllllllllllllllllllllllllllllllllllllllllll",
"llllllllllllllllllllllllllllllllllllllllllllllllllllllllllllllll",
"llllllllllllllllllllllllllllllllllllllllllllllllllllllllllllllll",
"llllllllllllllllllllllllllllllllllllllllllllllllllllllllllllllll",
"llllllllllllllllllllq443376i66>64474444443,3,lllllllllllllllllll",
"lllllllllllllllllllq7447666777i6644666444433,,llllllllllllllllll",
"llllllllllllllllllr866288eiiiiiiiii009099888856lllllllllllllllll",
"lllllllllllllllll84&+==;-=------=+-===-=======1<llllllllllllllll",
"lllllllllllllllll,&X+XXXOO%%%%%>9&%%%O%OXXXX+X+*llllllllllllllll",
"lllllllllllllllll@+.XXX+OO%%%%%ip;O++OO$+XXXX+O*llllllllllllllll",
"lllllllllllllllllo+X o++++%$$$$&i$$$+o@$ooo ooo*llllllllllllllll",
"llllllllllllllllll.  XXXXX $  $%6o$ OOX +X  ..olllllllllllllllll",
"llllllllllllllllllX.+XXO%OXX X $3 o XXOXXX..XX+lllllllllllllllll",
"llllllllllllllllll.X.XXOXO%XOX. & oXXXXXXX.X.XXlllllllllllllllll",
"llllllllllllllllll..XXOXXO++OOOX$%OOXOOOXOX..XXlllllllllllllllll",
"llllllllllllllllllX.X=w+OO4;OX8=%:3XO:-OX181X.Xlllllllllllllllll",
"llllllllllllllllll...tk1XOaa+=j2Xrd%;fq%;h1d;XXlllllllllllllllll",
"llllllllllllllllll..XfusOOaawsd8$ratffrXqyX22..lllllllllllllllll",
"llllllllllllllllllX.#jjj%XgqfstqOaqadttX1tXt8.Xlllllllllllllllll",
"llllllllllllllllll..1wXs;Xs2;=t5Ouw==8t+Xtwyo..lllllllllllllllll",
"llllllllllllllllll@....X.XXXXOOOOOXXXX.....X..olllllllllllllllll",
"llllllllllllllllllllllllllllllllllllllllllllllllllllllllllllllll"
};
