/* XPM */
static char *result[] = {
/* columns rows colors chars-per-pixel */
"6 20 17 1 ",
"  c #A0934A",
". c #A0934B",
"X c #A1954E",
"o c #A1954F",
"O c #A29751",
"+ c #A39854",
"@ c #A39956",
"# c #A39A57",
"$ c #A49A57",
"% c #A39B59",
"& c #A49A59",
"* c #A49A5B",
"= c #A49C5A",
"- c #A49C5B",
"; c #A39A5C",
": c #ABA76F",
"> c None",
/* pixels */
">>*;>>",
">>Xo>>",
">+  #>",
"- o .>",
"%    =",
"$    $",
">>>>>>",
"@    @",
"@    @",
"@ :: @",
"@ :: @",
"@ :: @",
"@ :: @",
"@ :: @",
"@ :: @",
"@    @",
"@    @",
">>>>>>",
"O    O",
"&@@@@&"
};
