/* XPM */
static char *_3eacd1fd5254c478e111293ecf5a985[] = {
/* columns rows colors chars-per-pixel */
"64 64 103 2 ",
"   c None",
".  c #37336C",
"X  c #38336C",
"o  c #39346D",
"O  c #3A356D",
"+  c #3B356D",
"@  c #3C366E",
"#  c #3C376F",
"$  c #3D376F",
"%  c #3C3670",
"&  c #493F76",
"*  c #4A3F77",
"=  c #483E7A",
"-  c #4D4177",
";  c #4A407A",
":  c #4D4179",
">  c #4F4378",
",  c #504376",
"<  c #534577",
"1  c #504378",
"2  c #514479",
"3  c #534578",
"4  c #524479",
"5  c #534579",
"6  c #51447B",
"7  c #53467B",
"8  c #54467A",
"9  c #55467A",
"0  c #59497B",
"q  c #5A497B",
"w  c #5B4A7B",
"e  c #5C4B7B",
"r  c #5D4B7B",
"t  c #604D7C",
"y  c #65507D",
"u  c #66517D",
"i  c #6A527A",
"p  c #6B527B",
"a  c #68517E",
"s  c #68527E",
"d  c #6B547E",
"f  c #6C547F",
"g  c #6E557F",
"h  c #544681",
"j  c #574881",
"k  c #5D4C89",
"l  c #615585",
"z  c #625988",
"x  c #675E8B",
"c  c #735880",
"v  c #745880",
"b  c #755980",
"n  c #765A81",
"m  c #775A81",
"M  c #795B81",
"N  c #7C5D82",
"B  c #7E5F84",
"V  c #775B8C",
"C  c #6C5693",
"Z  c #6B5595",
"A  c #725A9C",
"S  c #6B608D",
"D  c #6E6591",
"F  c #726A94",
"G  c #816083",
"H  c #826183",
"J  c #836183",
"K  c #846283",
"L  c #886484",
"P  c #8A6685",
"I  c #8B6685",
"U  c #8C6785",
"Y  c #8E6786",
"T  c #806589",
"R  c #916A86",
"E  c #926A86",
"W  c #956C87",
"Q  c #966D87",
"!  c #986E88",
"~  c #996E88",
"^  c #9A6F88",
"/  c #9A6F89",
"(  c #9C7089",
")  c #9E7189",
"_  c #9F7289",
"`  c #A1738A",
"'  c #A9778B",
"]  c #A9788B",
"[  c #AA788B",
"{  c #A9788C",
"}  c #AC7A8C",
"|  c #AD7A8C",
" . c #AE7A8C",
".. c #AE7B8C",
"X. c #AF7B8C",
"o. c #B07C8D",
"O. c #B17C8D",
"+. c #B27D8D",
"@. c #887FA3",
"#. c #948CAD",
"$. c #A19BB7",
"%. c #A69FBA",
"&. c white",
/* pixels */
"                                                                                                                                ",
"                                          7 7                               1 7 1 1                                             ",
"                                          c g 9 7                     1 1 7 0 w J 7                                             ",
"                                          +.+.U 7 7                 7 1 w v | +.+.                                              ",
"                                          +.+.X.L 0 1             > 1 g _ O.' E                                                 ",
"                                          7 ~ | +.g 7           7 7 a _ Q Q K g                                                 ",
"                                          7 v P ^ J 9 ,         1 9 g K E ` O.+.                                                ",
"                                            +.+.` g < 7         , 7 y _ +.+.+.                                                  ",
"                                              +.+.( j %       o 1 1 9 y U [ +.                                                  ",
"                                              +.' B C = .   o h A 7 t ~ Q J t 9                                                 ",
"                                              0 P { V ; % $ > A Z 7 c X.+.+.                                                    ",
"                                              +.+.+.K - > 7 7 k & d P M E                                                       ",
"                                                +.+.T F > #.x & 7 i i , w                                                       ",
"                                                    l D > @.z $ $ X . .                                                         ",
"                                                    7 %.S $.- X X . .                                                           ",
"                                                      &.&.&.                                                                    ",
"                                                                                                                                ",
"                                                                                                                                ",
"                                                                                                                                ",
"                                                                                                                                ",
"                                                                                                                                ",
"                                                                                                                                ",
"                                                                                                                                ",
"                                                                                                                                ",
"                                                                                                                                ",
"                                                                                                                                ",
"                                                                                                                                ",
"                                                                                                                                ",
"                                                                                                                                ",
"                                                                                                                                ",
"                                                                                                                                ",
"                                                                                                                                ",
"                                                                                                                                ",
"                                                                                                                                ",
"                                                                                                                                ",
"                                                                                                                                ",
"                                                                                                                                ",
"                                                                                                                                ",
"                                                                                                                                ",
"                                                                                                                                ",
"                                                                                                                                ",
"                                                                                                                                ",
"                                                                                                                                ",
"                                                                                                                                ",
"                                                                                                                                ",
"                                                                                                                                ",
"                                                                                                                                ",
"                                                                                                                                ",
"                                                                                                                                ",
"                                                                                                                                ",
"                                                                                                                                ",
"                                                                                                                                ",
"                                                                                                                                ",
"                                                                                                                                ",
"                                                                                                                                ",
"                                                                                                                                ",
"                                                                                                                                ",
"                                                                                                                                ",
"                                                                                                                                ",
"                                                                                                                                ",
"                                                                                                                                ",
"                                                                                                                                ",
"                                                                                                                                ",
"                                                                                                                                "
};
