/* XPM */
static char *result[] = {
/* columns rows colors chars-per-pixel */
"64 64 125 2 ",
"   c #060606",
".  c #080707",
"X  c #070806",
"o  c #080807",
"O  c #080708",
"+  c #070808",
"@  c #0C0C0B",
"#  c #100E0D",
"$  c #0F100F",
"%  c #11110E",
"&  c #100F10",
"*  c #151513",
"=  c #191714",
"-  c #171817",
";  c #191916",
":  c #171818",
">  c #1D1D1B",
",  c #201F1C",
"<  c #1E201E",
"1  c #21211E",
"2  c #1E2221",
"3  c #242523",
"4  c #282724",
"5  c #272926",
"6  c #292926",
"7  c #272928",
"8  c #2B2C2A",
"9  c #302F2F",
"0  c #2F302C",
"q  c #31312E",
"w  c #2E3131",
"e  c #343533",
"r  c #383733",
"t  c #373835",
"y  c #3A3A35",
"u  c #363A39",
"i  c #3C3D3A",
"p  c #403E3B",
"a  c #3F4037",
"s  c #3E413D",
"d  c #42423D",
"f  c #49423B",
"g  c #3F4240",
"h  c #434542",
"j  c #464945",
"k  c #4A4B46",
"l  c #464A49",
"z  c #4B4D4A",
"x  c #4E514D",
"c  c #51524D",
"v  c #56584F",
"b  c #4E5251",
"n  c #535552",
"m  c #565955",
"M  c #595A55",
"N  c #565A59",
"B  c #5A5C5A",
"V  c #5E615E",
"C  c #60625D",
"Z  c #5E6362",
"A  c #626563",
"S  c #646964",
"D  c #686965",
"F  c #656B69",
"G  c #6C6C68",
"H  c #6E746E",
"J  c #71736E",
"K  c #6D7371",
"L  c #717775",
"P  c #737A76",
"I  c #797B76",
"U  c #757C7B",
"Y  c #7A7D7B",
"T  c #7E8077",
"R  c #77807F",
"E  c #7C817D",
"W  c #81847D",
"Q  c #7B8382",
"!  c #7F8887",
"~  c #828783",
"^  c #848A84",
"/  c #898C85",
"(  c #858D8A",
")  c #898F8B",
"_  c #86908E",
"`  c #8D938D",
"'  c #90968F",
"]  c #8B9491",
"[  c #919792",
"{  c #949A93",
"}  c #999F97",
"|  c #959E99",
" . c #9A9F99",
".. c #96A09A",
"X. c #9CA39C",
"o. c #A1A79E",
"O. c #97A2A0",
"+. c #9CA5A1",
"@. c #9FA9A3",
"#. c #A0A6A1",
"$. c #A4ABA4",
"%. c #A8AFA7",
"&. c #A5AEA9",
"*. c #A9AFA9",
"=. c #A6B0A7",
"-. c #A9B1A7",
";. c #A6B1AB",
":. c #ABB3AC",
">. c #AFB8AE",
",. c #B1B5AE",
"<. c #B1B9AC",
"1. c #ACB6B1",
"2. c #AEBAB3",
"3. c #AFBAB9",
"4. c #B0B7B0",
"5. c #B1BBB5",
"6. c #B3BEB9",
"7. c #B5C1BA",
"8. c #B9C4BD",
"9. c #BCC7C2",
"0. c #BEC9C4",
"q. c #C1CBC6",
"w. c #C2CECA",
"e. c #C6D1CD",
"r. c #C8D1CC",
/* pixels */
"3 e h B C h h f k x n c n z c c M n x v M M m n n v M D I J D : Y Y Y G m M m m n n n n N m m m N B B B B N B B B B V V B h 9 4 ",
"1 8 8 r u 8 9 9 0 e e e e 8 e q e q 6 8 e e e e r 9 e p h i y * h z l g e e e e e e 9 e r 9 e e e e e r r e e e e 9 r p p 4 9 , ",
"3 8 4 3 7 8 8 0 8 e e 8 1 > ; > ; > 1 < > > > > 1 , > : - - ; ; : : * * : : * = : * : > : : : : : : : 8 r i p p p p i 4 3 4 4 4 ",
"3 8 y i s h h j j l z j i u p h h d j k j k k l z z h h t y y y i i r r i p p p g g g g g h h g i g g l l z b n n c b p i r 9 , ",
"1 9 a j j k j l x x n n n m v c v x c m v m v V B v v z c z M n M n c n b n n m b b n N N Z N b n N B m x b n n n b n j h g 9 , ",
"1 6 a j j d h l j z k z c c c c c x x c x k x v z z z z k z n x n x z x b b b x z b b b b N b b b B B n x x c n n z x h h p 8 , ",
"; 1 r i y y u y s s d d h h h h d s s d s s s d j d d d f d k h f k h h j j k z l h l g l z l h l l l h h h h h p p p i i e 4 = ",
"; 1 1 3 < 3 < > 3 3 4 3 3 3 4 3 5 3 3 3 < 5 5 1 4 3 3 4 3 4 7 3 8 9 8 8 8 9 9 9 w 8 7 8 8 8 7 7 7 7 7 7 4 4 9 7 4 4 3 , 3 3 , = ",
"- - - < < 2 2 5 < < < < * $ $ $ $ @ $ $ @ $ $ $ * # # # * # * # # & & & $ $ $ $ $ @ $ * $ $ & & $ $ $ < 3 3 9 9 9 4 4 > = = > : ",
"< 2 a a s x s s s s d s e 6 q e 0 0 q e 0 q 0 a r r e r e 9 r r 9 e r r e u w e t t u g g g g g i s u j z k c c x l k k i 9 8 , ",
"< 0 a s d v v z k k k k k d d k f z k k d f f d k k k k j j k c z z z c x x x z b b b b b N b b b b b x x k k c c k z k h p 8 , ",
"< 5 s a s v v x x z z k x k f x k x k f f c k k k k k k k k k k c z x b x x x x b b b b b n b b n b n x x x c k c k z p p r 8 , ",
"< 5 a a a v x k x x k k k d v k k k k c c k k k k k k k z z z c c z z c z c x x x x b b b b b b b b z z c z c c z c z p p y 6 1 ",
"< 5 a a a v k z d k d k d v v d k k k k c k j j k k k k k z k k z z z z x z x x z z z b b b b b z b b z c z c k z k c p p y 6 > ",
"< 6 w e a a s s s a a s s a a s d d d f p f p f h f p p p h h g f h h h j h g s g g l l g g l l h h h g h h h h d d h p r e 8 , ",
"< 5 5 1 5 2 a 5 2 a 5 5 0 5 0 0 8 q 6 6 8 6 9 9 9 q 9 e 8 9 9 8 9 8 9 8 8 8 6 8 8 0 8 7 2 w 7 7 3 5 7 8 6 6 8 6 9 q 9 4 3 3 3 1 ",
"< 1 # # # = % % * * $ $ X X         X X X X     o o     +   O   X o X X X @ X @ X X + + + + + + X X X * - * * - - - - # # # 1 , ",
"1 1 q r f f c v f x f d t e a a u a a a y s d d j h i p i u r i d d d d k d s s g s g g g g g g g s g m m M n M m n n f r q 4 > ",
"1 6 r r d f f v f x k f d f d k h z k k k k m v c n k j h h h k x x z k v k x k z l x b b b b b b z x x x x x c c c k f p r 5 , ",
"1 1 r p d v f c x x d f d d d f j d d k j k n n n z j j j j k k l x x z x k l k j l g b b g g b x x z x c z x x c k k f y r 1 , ",
"1 6 q r f c f v k k d d d d d d j h j j j k c c c z k j h h j j k z x z x k l k k l x l g b b b z z z x x z x x c z k f y q 6 , ",
"1 6 q r d f k k k k d d d f d f f h h k j j z k z k j f h h h j l k k z x x x x k k g x b b b b z l z z x l k x k k c p p 0 6 , ",
"1 6 a a a a a d f k d f a i d p p p p p d d k k h d d d d h d h h j j j j l k j s s g x g g g g j j j h h h l j d j f p p p 6 1 ",
"1 1 1 < < 5 0 0 1 5 6 1 1 1 1 1 3 6 4 4 6 4 9 8 8 4 3 3 4 4 6 7 8 5 8 8 5 5 0 7 0 7 7 w 7 w w w 8 8 8 7 5 3 5 5 5 5 6 , , 1 1 , ",
"1 1 1 1 5 5 5 8 8 8 7 2 % # @ @ @ @ @ O @ @ @ @ @ @ @ @ @ $ $ @ @ $ & & $ & @ $ $ $ $ $ $ $ + @ @ + $ 2 2 7 8 w e t u 3 3 3 3 > ",
"1 0 C / ' ..........| ] J B M M n n n n m n n B A A V B B B V V Z A Z Z Z Z Z Z Z Z Z Z Z Z Z Z B V K | O.O.;.2.5.5.6.[ ^ A 8 3 ",
"1 e T X.=.>.>.-.-.7.>.>.o.o.o.o.|  . .X.o. .#.$.$.$.#.X.+.$.$.$.$.&.&.&.&.&.@.&.;.;.;.;.;.;.@.O.@.$.;.7.7.7.7.9.0.9.q.e.9.I e 3 ",
"1 a / X.X.-.-.-.:.:.>.-.-.<.<.:.*.*.:.4.*.,.4.4.5.5.5.2.2.5.2.5.6.6.7.7.6.6.6.6.7.7.8.7.7.7.7.2.6.3.3.3.3.1.7.7.9.7.9.w.8./ y , ",
"1 y W o.o.-.-.<.-.-.-.=.-.<.:.-.*.*.-.*.%.%.:.4.5.6.5.1.5.5.5.6.2.7.7.7.7.6.6.7.7.7.7.7.7.7.7.3.2.2.2.6.2.2.7.7.7.7.7.8.6.^ y 1 ",
"1 y W ..X.-.-.-.-.;.=.=.-.-.-.=.*.*.%.*.$.%.:.,.,.4.1.>.>.>.5.5.2.2.>.>.6.2.2.5.7.7.7.7.7.7.2.1.2.6.6.3.7.3.7.3.3.7.7.7.7.W r 1 ",
"< q W ' } X.o.o.=.o.X.X.{ ' ' ' [ [ ` ` ` ` ' [ {  .} } ..X.................| | ..........| | | ....+.;.;.1.1.2.1.1.>.;.o.T q 1 ",
"@ = f v C H H J H S C V q 1 6 5 6 4 4 3 4 4 4 4 6 6 6 6 6 8 6 6 7 8 3 5 5 3 3 5 7 7 7 5 5 5 7 5 7 5 e b F K P I U U U C v d ; % ",
"; < ; ; < 4 5 5 3 3 1 > % @ @ @ O & & & # @ # # $ $ $ $ $ $ @ $ $ $ $ @ @ @ @ $ @ & & $ $ @ @ + @ @ & : 7 7 7 7 w 7 7 < ; - < * ",
"< 6 q r y p d d h i d h k h h h h j l b z z z z x g x n V N b n n m b x c n n m B Z Z B N b n N N b N N N Z N Z N N V u u e 6 < ",
"< 5 0 r r i i y d i i a d h p f g p g p p p p h l l x b x z l g g j g h h p h h z x x x z l l l b g g g b g g b b g l u r 0 6 < ",
"1 5 r d r p y a d d d d i d d d g g p g p g h h j j x x b z h h l g g h h h h h l x b z z h h h g b g b g g b b g b l s d r 5 < ",
", 5 q y a y d a i d d a d d h j h h g g g h h h l k x c n l h h h h h h g h h h z z x z l l h h g g g g N g N g l k k i y q 6 1 ",
", 4 q d y d y d i i a i p p j j f j h h p h h h h l z x z l k l h h h p h h k h l z l j h h h h b g g g g g g g z l k a y e 1 1 ",
"1 1 q i e y y a y y r i y p g h p p p p i d h d p h j z z j j h h h p h h g f h h h g s g i s s g g g g g g g g l j d r y q 5 < ",
"; 1 1 5 0 0 0 q q q q 6 - @ # & O & O O @ o @ @ # @ @ # # # @ & @ @ @ @ @ @ @ @ @ @ @ @ & & @ @ $ : : w g g g g a t e q 5 1 < ; ",
"* ; * * ; 3 5 5 8 8 8 3 : > > > , , > 2 > 2 : > : 2 2 2 2 > 2 : 1 > > > > 2 2 2 2 2 : 2 < 2 3 7 7 7 7 8 8 w w 3 3 8 8 > - * - * ",
"- 3 i n S K P P Y E E K K L L P U U P I Y U U P P P R R R R R R R R U U Y Q Q ! ! Q U U R ! _ ] ! ] _ ! Q _ _ Q Q ( ~ S b i 3 - ",
"; q I #.>.5.2.5.1.>.:.1.1.6.8.9.9.q.q.q.9.9.0.0.q.q.q.q.9.9.9.9.9.9.9.9.q.e.r.w.e.e.0.0.0.e.e.e.e.0.9.9.9.9.q.r.w.e.r.6.#.I 8 > ",
"> q I { ..o.$.$.#.X.#.#.#.*.*.*.*.:.*.1.:.4.1.1.1.:.*.-.1.&.1.1.1.1.1.1.:.1.1.1.3.1.;.;.;.;.1.3.3.3.&.;.;.1.1.4.2.5.>.1.*.I q > ",
"< r W { ..o.o.$.X.o.X.o.o.$.-.;.-.*.;.-.-.4.*.4.:.&.;.;.&.&.*.*.;.;.*.:.*.:.*.:.1.&.&.&.&.&.;.1.3.;.;.@.&.*.4.4.4.:.:.>.:.W r > ",
"> e I ' X.o.o.o.o.o.o.o.X.#.#.#.:.-.,.-.:.:.*.*.*.&.*.;.&.&.&.1.;.;.&.&.*.*.*.*.:.*.&.&.&.;.>.1.1.;.@.;.$.&.:.1.>.,.:.4.,.I e > ",
"> q T ` { X...X.......{ ^ ^ ` ` ` [ ` ~ ~ ( ) ] ] ] [ { [ [ ] _ ] _ ( _ ] ] ] [ ] ` ) ) ) ) ` ] ] _ ] O.+.#.$.*.%.$.$.$.%.I q > ",
"> 6 M J T W W W ^ E T F a e s d h h y 8 9 e i s h h k h h h s i p i i p p h h h h h g s s s g h s u l U ~ ( ) ^ ~ ~ ^ / E M 8 > ",
"> 1 0 r d l k k j s u 1 $ .         .   . O + + + O + @ O O + O O O O O O O O & O O O O O O O O + + $ e g j g s s s d h u 6 5 > ",
"> 1 > < 1 6 5 5 3 5 3 3 5 6 3 4 8 6 4 8 8 8 8 w 7 8 8 w 9 9 e 9 8 7 8 9 9 9 9 9 9 8 7 8 8 7 8 8 0 8 7 8 8 0 w 0 7 7 6 < < > 1 > ",
"> 5 q q a d d d a s a s h h d h k k k k j h h l l z h z b l b b j h l g h l z z l l g g g g l l l g g l l k l k l k k t q 9 5 > ",
", 4 r i a d d a d s s a p i d k j d h h h h h h h h h h k k z k l g g g h g h h g g g i g h h h h l l l l g l j h l z t y r 4 > ",
"; 4 q p r f s d d d d i d g h j j d k d h h h j h h h h l k l h h g p h g h h h h i i i u g g g h l j l h h l l l z k y r q 6 , ",
"; 3 9 e r f f a d f d d d i d h j k d j s d h h h h h h k l j h g g p h h h h h h i g i g i e u s l h h j g g l j k k r y q 1 ; ",
"; 4 0 9 r d f d a a d d d i p i y y y y y y d d h h h k k l j d i g p h h g g g g i u u e e e u d j d d s s g s d d f i 9 0 1 , ",
"; , 4 0 q y r a a a r r 5 > > , ; ; < ; > 2 3 3 7 3 4 6 8 4 1 1 > , 3 7 3 2 2 3 , , > : > > 2 2 1 1 5 e s u s e t t r 0 0 6 1 = ",
"* > ; ; = < < < 2 2 1 ; $ X o X X X X X X o o o @ O O & @ O O O O @ & @ O O @ O O O O O O O O O @ O @ 2 3 3 2 > < < > ; ; ; > - ",
"; > ; ; % < = = * - ; % ; - - > 1 1 > 1 , 1 1 > : * : * : : : : > : > > > 2 2 > 2 > > : : > > > , 2 2 2 2 3 3 3 2 < 3 - ; - > ; ",
"; 3 q y y d d f j k d k k k j k z z z z k k z k z z b z b b z l g h l l z b l l l h g h h l l b l z l h l l l b b x b u y e 3 - ",
"; 3 r y y d y a d d d d d d d d k d j h k j f k h l l l l h l h g g g h h g l g g g i i u i h h g h g i i g g h l h g u y r 4 - ",
"* 1 e e r r f d d s f f d d d d f d d a d k h h h h h h h h l g g g g h g g g g i i u u r i h h g g g g g s g g h h d e e r 3 * ",
"* 1 8 q 0 a r a a a a f d d d a y y a y d h h i g h d i i i g g i i i p g g i u y e e w e r h h g g g u u i i i i g p 9 8 8 1 & ",
"@ * 1 , 1 1 6 1 1 6 4 4 0 1 1 1 1 1 1 1 1 3 1 3 3 8 6 7 4 6 4 8 7 3 4 4 4 3 3 2 , , , 3 2 3 7 4 2 3 2 , , 1 1 1 3 3 4 , , , * @ ",
"# * * - < % = * = ; = ; ; = ; ; = = = ; % * * * # # - - = = , O * : = * & = = & & & & * & & & * & * = = * * * * * : * > - - * @ "
};
