/* XPM */
static char *result[] = {
/* columns rows colors chars-per-pixel */
"64 64 227 2 ",
"   c #060605",
".  c #0C0C0B",
"X  c #0A0603",
"o  c #170F07",
"O  c #110F0B",
"+  c #15120B",
"@  c #1D150A",
"#  c #1A1309",
"$  c #141414",
"%  c #1B1B1B",
"&  c #1F1811",
"*  c #240B06",
"=  c #2D0C06",
"-  c #260A0A",
";  c #3B0402",
":  c #330A05",
">  c #3D0A05",
",  c #330D09",
"<  c #231B0D",
"1  c #281F0F",
"2  c #26150A",
"3  c #3A160A",
"4  c #231E14",
"5  c #271111",
"6  c #391915",
"7  c #29210F",
"8  c #2D2311",
"9  c #28241D",
"0  c #322612",
"q  c #352A14",
"w  c #3B2C16",
"e  c #3C2C19",
"r  c #372919",
"t  c #3D3019",
"y  c #242424",
"u  c #2C2C2C",
"i  c #2A2826",
"p  c #352B26",
"a  c #3C3324",
"s  c #37322A",
"d  c #333333",
"f  c #3B3B3B",
"g  c #393630",
"h  c #440603",
"j  c #4D0603",
"k  c #430904",
"l  c #490904",
"z  c #420D0A",
"x  c #540503",
"c  c #5B0502",
"v  c #580804",
"b  c #43190D",
"n  c #630402",
"m  c #6C0201",
"M  c #750101",
"N  c #7A0302",
"B  c #741510",
"V  c #422F18",
"C  c #412914",
"Z  c #44331A",
"A  c #4A361C",
"S  c #4E391E",
"D  c #403117",
"F  c #523A1F",
"G  c #56331A",
"H  c #652F1A",
"J  c #73301B",
"K  c #4A3824",
"L  c #543C21",
"P  c #5A3E22",
"I  c #453C31",
"U  c #522E2E",
"Y  c #5D4123",
"T  c #574124",
"R  c #494239",
"E  c #564836",
"W  c #634425",
"Q  c #694627",
"!  c #654629",
"~  c #6A4628",
"^  c #6D4A2A",
"/  c #684928",
"(  c #744D2C",
")  c #7B4C2B",
"_  c #77502D",
"`  c #7B522E",
"'  c #674C33",
"]  c #7E5431",
"[  c #745739",
"{  c #434343",
"}  c #4D4D4D",
"|  c #4F4A40",
" . c #55514B",
".. c #5D5342",
"X. c #535353",
"o. c #5C5C5C",
"O. c #5B5653",
"+. c #6C544F",
"@. c #76685B",
"#. c #77644D",
"$. c #646464",
"%. c #6B6B6B",
"&. c #747474",
"*. c #7C7C7C",
"=. c #726F6F",
"-. c #820000",
";. c #8C0502",
":. c #950201",
">. c #9B0201",
",. c #970D02",
"<. c #811C17",
"1. c #9A1313",
"2. c #A80000",
"3. c #B71311",
"4. c #922915",
"5. c #93341E",
"6. c #8E241F",
"7. c #BD3819",
"8. c #863526",
"9. c #993535",
"0. c #8F2E2E",
"q. c #CC0000",
"w. c #F90000",
"e. c #F71010",
"r. c #85472A",
"t. c #835632",
"y. c #855933",
"u. c #8B5C35",
"i. c #8B5A37",
"p. c #925E39",
"a. c #905D37",
"s. c #904E2C",
"d. c #AF5E3D",
"f. c #946139",
"g. c #9C653D",
"h. c #9E683F",
"j. c #A2693F",
"k. c #A0673E",
"l. c #B36C36",
"z. c #B64A13",
"x. c #C4632E",
"c. c #875757",
"v. c #996843",
"b. c #956849",
"n. c #A56B41",
"m. c #AA6E43",
"M. c #AC644F",
"N. c #B66D43",
"B. c #AC7045",
"V. c #A5714A",
"C. c #B27346",
"Z. c #B4764A",
"A. c #BB7A4C",
"S. c #B8784B",
"D. c #BC7D53",
"F. c #B37858",
"G. c #B46B59",
"H. c #8B6666",
"J. c #90746D",
"K. c #A57B7B",
"L. c #CA5F5A",
"P. c #CB6543",
"I. c #C27D4E",
"U. c #CE6452",
"Y. c #C37F51",
"T. c #D56F4E",
"R. c #ED6868",
"E. c #9E826B",
"W. c #C68153",
"Q. c #CC8455",
"!. c #CA875A",
"~. c #D48B5C",
"^. c #DA8E5E",
"/. c #D18656",
"(. c #CD8E63",
"). c #DC9263",
"_. c #D89265",
"`. c #D49C78",
"'. c #D78F6D",
"]. c #E19565",
"[. c #E59A6A",
"{. c #E99D6D",
"}. c #E49F72",
"|. c #E18064",
" X c #EDA272",
".X c #ECA579",
"XX c #F1A676",
"oX c #F4AA7B",
"OX c #F4AA7C",
"+X c #848484",
"@X c #8B8B8B",
"#X c #8B8282",
"$X c #968D84",
"%X c #959595",
"&X c #9B9B9A",
"*X c #AF9893",
"=X c #BEAA9C",
"-X c #A3A3A3",
";X c #ACACAC",
":X c #B3B3B3",
">X c #BDBDBD",
",X c #B8AFA9",
"<X c #C99F83",
"1X c #D3AF97",
"2X c #D3AE98",
"3X c #EAA982",
"4X c #F5AF84",
"5X c #F9B183",
"6X c #FAB58B",
"7X c #FEBB93",
"8X c #F5B994",
"9X c #ECB08A",
"0X c #C2A8A7",
"qX c #D8ACAC",
"wX c #FDC19E",
"eX c #FBC7A8",
"rX c #C4C4C4",
"tX c #CCCCCC",
"yX c #D4D3D3",
"uX c #DBD9D9",
"iX c #FBD0D0",
"pX c #ECE4DF",
"aX c #F0E1D9",
"sX c gray91",
"dX c #F2F2F2",
"fX c #F3E3E3",
"gX c None",
/* pixels */
"gXgXgXgXgXgXgXgXgXgXgXgXgXgXgXgXgXgXgXgXgXgXgXgXgXgXgXgXgXgXgXgXgXgXgXgXgXgXgXgXgXgXgXgXgXgXgXgXgXgXgXgXgXgXgXgXgXgXgXgXgXgXgXgX",
"gXgXgXgXgXgXgXgXgXgXgXgXgXgXgXgXgXgXgXgXgXgXgXgXgXgXgXgXgXgXgXgXgXgXgXgXgXgXgXgXgXgXgXgXgXgXgXgXgXgXgXgXgXgXgXgXgXgXgXgXgXgXgXgX",
"gXgXgXgXgXgXgXgXgXgXgXgXgXgXgXgXgXgXgXgXgXgXgXgXgXgXgXgXgXm.).{.).Q.{.{.A.gXgXgXgXgXgXgXgXgXgXgXgXgXgXgXgXgXgXgXgXgXgXgXgXgXgXgX",
"gXgXgXgXgXgXgXgXgXgXgXgXgXgXgXgXgXgXgXgXgXgXgXgXgX#.!.6XXX[.{.4XXX[.5X4X[. X6XW.gXgXgXgXgXgXgXgXgXgXgXgXgXgXgXgXgXgXgXgXgXgXgXgX",
"gXgXgXgXgXgXgXgXgXgXgXgXgXgXgXgXgXgXgXgXgXgXgX*.f X.@.2X`.8X[.8X7XXXwX8X4X{.1XJ.o.$.gXgXgXgXgXgXgXgXgXgXgXgXgXgXgXgXgXgXgXgXgXgX",
"gXgXgXgXgXgXgXgXgXgXgXgXgXgXgXgXgXgXgXgXgX} X.#X..U a Y..X8X)._.oX{.oX_.9X^.3Xe 6 +.@X{ gXgXgXgXgXgXgXgXgXgXgXgXgXgXgXgXgXgXgXgX",
"gXgXgXgXgXgXgXgXgXgXgXgXgXgXgXgXgXgXgXd o.o.p B N 5 8.J n.p.].Z.u.B.f.W.Z.V.r.5.! 1.<.} +X{ gXgXgXgXgXgXgXgXgXgXgXgXgXgXgXgXgXgX",
"gXgXgXgXgXgXgXgXgXgXgXgXgXgXgXgXgXgXgXy y 4 o 4 X X ` 7.w v.'.B.Y t.^ !.F.Y 4.l.K i - 5 R d % gXgXgXgXgXgXgXgXgXgXgXgXgXgXgXgXgX",
"gXgXgXgXgXgXgXgXgXgXgXgXgXgXgXgXgXgXgX. # 8 o + +   < V 1 ` I.|.P.P.T.].k.1 C A # @ + 8 @ . O gXgXgXgXgXgXgXgXgXgXgXgXgXgXgXgXgX",
"gXgXgXgXgXgXgXgXgXgXgXgXgXgXgXgXgXgXgX. X + o O e w V w < Z 8.x.G.U.z.N.G 7 8 gXgX.   8 @ X . gXgXgXgXgXgXgXgXgXgXgXgXgXgXgXgXgX",
"gXgXgXgXgXgXgXgXgXgXgXgXgXgXgXgXgXgXgXgXgXgXgX^ i.^ Z 8 w V J 5.,.2.4.s.P 7 Z a.u.gXgXgXgXgXgXgXgXgXgXgXgXgXgXgXgXgXgXgXgXgXgXgX",
"gXgXgXgXgXgXgXgXgXgXgXgXgXgXgXgXgXg.n.Q @ 0 ! u.).j.( m.t.Y m.M.L.L.G.d.` F ` m.Y.t.K gXgXgXgXgXgXgXgXgXgXgXgXgXgXgXgXgXgXgXgXgX",
"gXgXgXgXgXgXgXgXgXgXgXgXgXgXgXB.^.{.A.S Z j.]. X{.I.).[.^.( ( Y 0 8 P ( F f.].~.XXD.K u.gXgX^.W.gXgXgXgXgXgXgXgXgXgXgXgXgXgXgXgX",
"gXgXgXgXgXgXgXgXgXgXgXgXgX>.H S.{.).m.` Q g.S.~.{. XXX6X6X}.D.f.F A f.D.`.8XwXwX7X.XW.Z.I.~.9X.XA.Z.gXgXgXgXgXgXgXgXgXgXgXgXgXgX",
"gXgXgXgXgXgXgXgXgXgXgX>.-.s.P Z P F / t.t.) u.g.m.S.A.W.Q./.).Y.S.j.^.{.OXOX.X.X}.~.B.Z.[.Z.W.D.Z.!.t.gXgXgXgXgXgXgXgXgXgXgXgXgX",
"gXgXgXgXgXgXgXgXgXgXq.>.J ` ~ 1 < w t.` W F t.j.m.m.m.C.A.Y.Y.A.~.j.).XX].!.C.m.n.f._ ] (.f.Z.F.(.B.L gXgXgXgXgXgXgXgXgXgXgXgXgX",
"gXgXgXgXgXgXgXgXgXgX2.B h.B.F 7 7 7 @ # # @ 7 F t.m.W.^.[.oX[.Y.).n.[.XXXX[.[.[.{. X_.^ w V.S.m.[.[.i.gXgXgXgXgXgXgXgXgXgXgXgXgX",
"gXgXgXgXgXgXgXgXgXgXw.Y h.B.` @ < # o # # 2 q < < 8 Z W ` g.f.p.~.n.u.m.j.t.^ A K W P V v.5X XOXeX7XQ.j.gXgXgXgXgXgXgXgXgXgXgXgX",
"gXgXgXgXgXgXgXgXgXgXw.< F W A < @ # # < 1 0 ( t.^ 4 < 2 < 1 e ( Q.g.S t 0 0 8 < < < < W S.6XOXOX5X8X).S.gXgXgXgXgXgXgXgXgXgXgXgX",
"gXgXgXgXgXgXgXgXgX2.q.C 7 < < @ < # # 7 7 < w ^ ( Z Z w F t.Y.Y.W.~.j.] A q 7 < < P P ^ ` I.~.Q. XQ.A.g.gXgXgXgXgXgXgXgXgXgXgXgX",
"gXgXgXgXgXgXgXgXgXe.+.a < @ # # o # < gXw q 0 1 8 p.j.i.( ` ( _ _ ` u.m.p._ L 8 0 F w L p.P p.n.C.m.g.L gXgXgXgXgXgXgXgXgXgXgXgX",
"gXgXgXgXgXgXgXgXgX3.@X9 @ # @ # < 7 gXgXF S V V v._ ] 0 F C.^ A ( C.Q 0 W v.i.K 1 @ < < `.' !.<X1X2XE.e gXgXgXgXgXgXgXgXgXgXgXgX",
"gXgXgXgXgXgXgXgXgXJ I < @ # # < < 7 gXgXgXZ V Q Z.( 0 < F ! q 7 0 ` Z.] 0 A a.( A 1 a &X*X=XeXfXrXsXtXI gXgXgXgXgXgXgXgXgXgXgXgX",
"gXgXgXgXgXgXgXgXQ ( Z < 1 @ @ < 7 gXgXgXgX0 7 Z A 8 @ < 0 V < < @ < e Q A < 0 L Z @.yX-XuXaXsX-XsXdXtXV.v.gXgXgXgXgXgXgXgXgXgXgX",
"gXgXgXgXgXgXgXgXh.` Z A Y 0 @ < gXgXgXgXgXgXw 8 @ # o # + # @ @ # # < < 1 < < Z R yX;XtXdX0X9.c.*.>X&Xv.V.gXgXgXgXgXgXgXgXgXgXgX",
"gXgXgXgXgXgXgX&. .^ A A A 8 8 7 gXgXgXgXgXgX@ @ # = * : , = n k # o o o # # # @ { d i o.$.c.R.$X+Xo.o.p b.gXgXgXgXgXgXgXgXgXgXgX",
"gXgXgXgXgXgXgX@X..` Y A 8 8 7 gXgXgXgXgXgXgXj = * x n = -.x >.M o ; h n m j o > z % d uXuXiX0X#XuXyXo.I ' gXgXgXgXgXgXgXgXgXgXgX",
"gXgXgXgXgXgXgX-XE u.^ Z 7 < 7 gXgXgXgXgXgXgXc : h = h h N j ,.;.= ; h m n -.j * , 4 *.dXfXaX;XrXsX;X{ { D gXgXgXgXgXgXgXgXgXgXgX",
"gXgXgXgXgXgXgX@._ f.W r g 9 gXgXgXgXgXgXgXgXx > l o > N h x -.m l > n h M M h x < R yXtX#X=.+XrX:X&.d { 8 gXgXgXgXgXgXgXgXgXgXgX",
"gXgXgXgXgXgXgX_ t.h.A  .X.gXgXgXgXgXgXgXgXgX> k : k c k ; x M j x k c n ; : j = = $.&.f y i u u } X.d d u gXgXgXgXgXgXgXgXgXgXgX",
"gXgXgXgXgXgX` g.f.Z t } gXgXgXgXgXgXgXgXgX1 < = * h k x o ; c k M l k > * h * # 4 f % d &.+X%.d y { o.u d gXgXgXgXgXgXgXgXgXgXgX",
"gXgXgXgXgXK F ^.Q.Q gXgXgXgXgXgXgXgXgXgX0 F F q F 2 = x > 2 3 > , ,.c > 2 w H 0 y.K % d     d f % f } y gXgXgXgXgXgXgXgXgXgXgXgX",
"gXgXgXgXgX0 ^ !.v.D gXgXgXgXgXgXgXgXgXgXV ` Q Y ` ( ) ) s.F g.t.W d.r.p.v.f.` ` S.P % y $ O % $ $ f f u gXgXgXgXgXgXgXgXgXgXgXgX",
"gXgXgXgXgXW t.( Y gXgXgXgXgXgXgXgXgXgXgXK t./ f.m.^ F / Y Q ( ` i.p.k.g.u.` Q y.t.W 8 % $ .     $ i f gXgXgXgXgXgXgXgXgXgXgXgXgX",
"gXgXgXgXgXw k.0 Z n.gXgXgXgXgXgXgXgXy.%.@.g.u.a.Q.B.F @ @ < 7 7 q Z Z F Z t A Y Z Z Y p % $ $ $ O % y gXgXgXgXgXgXgXgXgXgXgXgXgX",
"gXgXgXgXgX8 ` / t Y gXgXgXgXgXgXgX` V./.f.C.].].g.A.~.8.* : @ < 7 7 1 < 0 ] W.g.Z Q _ Z $ $ . . . $ u gXgXgXgXgXgXgXgXgXgXgXgXgX",
"gXgXgXgXgXgX@ L t.Y gXgXgXgXgXgXY (.].g.^.).Q.^.I./ ^ i.<.b q 7 @ # < t _ u.W.u.L f.t.w & + . . . . gXgXgXgXgXgXgXgXgXgXgXgXgXgX",
"gXgXgXgXgXgXgX< 8 ! gXgXgXgXgXA.W (.A.i.^.oXXX).C.C.^ D A w 7 2 o < w t A Y g.W L a.t.w _ Y gXgXgXgXgXgXgXgXgXgXgXgXgXgXgXgXgXgX",
"gXgXgXgXgXgXgXgXgXgXgXgXgXgXgXn.W A.S.B.[.7XXX~.k.t.Z Z 8 < gX@ @ q h.^ q t S 0 q ~ L / C.` gXgXgXgXgXgXgXgXgXgXgXgXgXgXgXgXgXgX",
"gXgXgXgXgXgXgXgXgXgXgXgXgXgX_ y.` A.I.j./.oX).C.t.Z < e P gXgXgXgX< Y ` F 7 0 @ q S A ` C.t.gXgXgXgXgXgXgXgXgXgXgXgXgXgXgXgXgXgX",
"gXgXgXgXgXgXgXgXgXgXgXgXgXgXA Z S.S./.g.k.A.k._ 8 @ 4 L L gXgXgXgX< < < w < < < 8 w D S ^ Z gXgXgXgXgXgXgXgXgXgXgXgXgXgXgXgXgXgX",
"gXgXgXgXgXgXgXgXgXgXgXgXgXgX@ a [ g.C.^ ( ( F 0 < < D t.< gXgXgXgXgX< 1 @ @ 0 < < @ < 8 A t 7 gXgXgXgXgXgXgXgXgXgXgXgXgXgXgXgXgX",
"gXgXgXgXgXgXgXgXgXgXgXgXgXgXu $X#.t.y.P L t < < < 8 ~ L gXgXgXgXgXgX< 1 < < < < @ @ < < 8 q q gXgXgXgXgXgXgXgXgXgXgXgXgXgXgXgXgX",
"gXgXgXgXgXgXgXgXgXgXgXgXgXf $.:XE t.g.^ W 7 @ 2 @ 1 L S gXgXgXgXgXgXgX< 7 7 < < < < @ @ < 7 q gXgXgXgXgXgXgXgXgXgXgXgXgXgXgXgXgX",
"gXgXgXgXgXgXgXgXgXgXgXgXd } @X@XE ` f.` L 7 @ < 0 q 1 gXgXgXgXgXgXgXgXgX< < < 7 8 @ < # < < 8 gXgXgXgXgXgXgXgXgXgXgXgXgXgXgXgXgX",
"gXgXgXgXgXgXgXgXgXgXgXgXf o.-X=.R w w w 0 7 4 q q q gXgXgXgXgXgXgXgXgXgX< < < # # @ @ < # < < gXgXgXgXgXgXgXgXgXgXgXgXgXgXgXgXgX",
"gXgXgXgXgXgXgXgXgXgXgXf %.;X$.o.K @ < @ < 9 Z e K gXgXgXgXgXgXgXgXgXgXgX< < < @ # + # @ < 0 gXgXgXgXgXgXgXgXgXgXgXgXgXgXgXgXgXgX",
"gXgXgXgXgXgXgXgXgXgXgX} &.{ { } s 7 @ @ < g L / K gXgXgXgXgXgXgXgXgXgXgXgXgX8 < # # o @ < 0 F gXgXgXgXgXgXgXgXgXgXgXgXgXgXgXgXgX",
"gXgXgXgXgXgXgXgXgXgXu X.u X.-X$.$X/ 8 < i R E #.gXgXgXgXgXgXgXgXgXgXgXgXgXgX7 o o @ @ @ @ 8 q gXgXgXgXgXgXgXgXgXgXgXgXgXgXgXgXgX",
"gXgXgXgXgXgXgXgXgXgXy y d rX%X&X-XJ.' s d u  .K gXgXgXgXgXgXgXgXgXgXgXgXgXgX& # @ < 7 @ 7 t t q gXgXgXgXgXgXgXgXgXgXgXgXgXgXgXgX",
"gXgXgXgXgXgXgXgXgXgX:.3.+X;X+X$.$.=.$.o.u u u gXgXgXgXgXgXgXgXgXgXgXgXgXgXgX0 & @ 7 7 @ @ 8 t w gXgXgXgXgXgXgXgXgXgXgXgXgXgXgXgX",
"gXgXgXgXgXgXgXgXgXX.K.qX;X@X*.U p %.o.o.u y y gXgXgXgXgXgXgXgXgXgXgXgXgXgXgXZ o @ @ 7 @ o < q 8 gXgXgXgXgXgXgXgXgXgXgXgXgXgXgXgX",
"gXgXgXgXgXgXgXgX% o.:X>X&X&.=.:.0.J.X.f % % gXgXgXgXgXgXgXgXgXgXgXgXgXgXgXgXgX7 # @ @ < o @ 7 @ gXgXgXgXgXgXgXgXgXgXgXgXgXgXgXgX",
"gXgXgXgXgXgXgXgXy %.:X;X+X&.| q.H.&.X.u % gXgXgXgXgXgXgXgXgXgXgXgXgXgXgXgXgXgX8 @ @ @ 7 7 7 7 7 gXgXgXgXgXgXgXgXgXgXgXgXgXgXgXgX",
"gXgXgXgXgXgXgX% d { { +X*.@XM 9.%Xo.g gXgXgXgXgXgXgXgXgXgXgXgXgXgXgXgXgXgXgXgXgX< 7 8 t S F Z w L ^ gXgXgXgXgXgXgXgXgXgXgXgXgXgX",
"gXgXgXgXgXgXgXgXy % { -X%X@.-.J.@X} % gXgXgXgXgXgXgXgXgXgXgXgXgXgXgXgXgXgXgXgXgXgX< q S P / ( W Q ] F gXgXgXgXgXgXgXgXgXgXgXgXgX",
"gXgXgXgXgXgXgXgX{ { *.rX:X,XM.*XH.d gXgXgXgXgXgXgXgXgXgXgXgXgXgXgXgXgXgXgXgXgXgXgX# < 8 0 q Z t w w 8 7 gXgXgXgXgXgXgXgXgXgXgXgX",
"gXgXgXgXgXgXgXf X.&X>XtXyXtX-XH.6.b gXgXgXgXgXgXgXgXgXgXgXgXgXgXgXgXgXgXgXgXgXgXgX# # # < 0 w Z Z q 7 @ gXgXgXgXgXgXgXgXgXgXgXgX",
"gXgXgXgXgXgX% u u X.@X>XrXrX+X} a < gXgXgXgXgXgXgXgXgXgXgXgXgXgXgXgXgXgXgXgXgXgXgX# @ < 7 7 Z A t q < # gXgXgXgXgXgXgXgXgXgXgXgX",
"gXgXgXgXgXgXgX$ d } $.@X%X%X%.B ; + gXgXgXgXgXgXgXgXgXgXgXgXgXgXgXgXgXgXgXgXgXgXgXo # @ < q A F Z w 8 < o gXgXgXgXgXgXgXgXgXgXgX",
"gXgXgXgXgXgX% d { o.+X-XrX;X@XH.8.6 gXgXgXgXgXgXgXgXgXgXgXgXgXgXgXgXgXgXgXgXgXgXgXo # 7 8 q A T S A 0 7 o gXgXgXgXgXgXgXgXgXgXgX",
"gXgXgXgXgXgX% u u { &.;XrX:X*.{ s 7 gXgXgXgXgXgXgXgXgXgXgXgXgXgXgXgXgXgXgXgXgXgXgXo o # # @ 7 8 7 @ # o gXgXgXgXgXgXgXgXgXgXgXgX",
"gXgXgXgXgXgXgXy d { $.&X;X-X&.{ i & gXgXgXgXgXgXgXgXgXgXgXgXgXgXgXgXgXgXgXgXgXgXgXgXgXgXgXgXgXgXgXgXgXgXgXgXgXgXgXgXgXgXgXgXgXgX",
"gXgXgXgXgXgXgX% y y d } X.} f y % gXgXgXgXgXgXgXgXgXgXgXgXgXgXgXgXgXgXgXgXgXgXgXgXgXgXgXgXgXgXgXgXgXgXgXgXgXgXgXgXgXgXgXgXgXgXgX"
};
