/* XPM */
static char *_0eb5ce8319544fce6ab2653a304a174[] = {
/* columns rows colors chars-per-pixel */
"64 64 134 2 ",
"   c None",
".  c #6584A4",
"X  c #6684A4",
"o  c #6785A4",
"O  c #6E89A6",
"+  c #708BA6",
"@  c #7B92A9",
"#  c #7E93A9",
"$  c #7A94AF",
"%  c #7B95B0",
"&  c #7B96B1",
"*  c #8198AD",
"=  c #8298AD",
"-  c #8B9CAD",
";  c #8D9DAD",
":  c #8D9EAE",
">  c #93A1AE",
",  c #94A2AF",
"<  c #89A1B9",
"1  c #93A6B7",
"2  c #9BA6B1",
"3  c #9EA9B1",
"4  c #9FA9B1",
"5  c #93A7BA",
"6  c #96A8B9",
"7  c #95A9BD",
"8  c #9BACBC",
"9  c #9BADBE",
"0  c #9CADBD",
"q  c #9DADBD",
"w  c #9DAEBD",
"e  c #9DAEBE",
"r  c #9EAFBE",
"t  c #9FAFBE",
"y  c #A2ACB2",
"u  c #A4ADB2",
"i  c #A5ADB3",
"p  c #A7AEB3",
"a  c #A8AFB4",
"s  c #ACB1B4",
"d  c #A0B0BF",
"f  c #A3B1BE",
"g  c #A4B1BF",
"h  c #A5B3BF",
"j  c #A7B3BF",
"k  c #B0B3B6",
"l  c #B1B4B6",
"z  c #B0B4B7",
"x  c #B4B7B7",
"c  c #B7B7B7",
"v  c #B9BAB9",
"b  c #BABAB8",
"n  c #BBBBB8",
"m  c #BEBDB9",
"M  c #BFBDB9",
"N  c #BFBDBA",
"B  c #C0BEBA",
"V  c #C1BEBA",
"C  c #C4C0BB",
"Z  c #C5C1BB",
"A  c #A1B1C0",
"S  c #A2B1C0",
"D  c #A2B2C0",
"F  c #A3B2C1",
"G  c #A3B3C1",
"H  c #ABB7C3",
"J  c #ACB9C5",
"K  c #AABACA",
"L  c #AEBBC8",
"P  c #B9BFC4",
"I  c #B1BDC9",
"U  c #B2C1CF",
"Y  c #BCC4CB",
"T  c #BBC8D5",
"R  c #BCC9D5",
"E  c #BECAD7",
"W  c #BFCBD7",
"Q  c #C7C7C5",
"!  c #CBC7C2",
"~  c #CACAC9",
"^  c #CACBCA",
"/  c #CCCCCB",
"(  c gray80",
")  c #D0CDC8",
"_  c #D1CFC9",
"`  c #D1D1CF",
"'  c #D5D2CE",
"]  c #D5D3CF",
"[  c #C6CED6",
"{  c #C0CDD9",
"}  c #C3CED9",
"|  c #C4CFD9",
" . c #C5D0DB",
".. c #C9D3DC",
"X. c #C9D3DD",
"o. c #C9D3DE",
"O. c #CBD5DF",
"+. c #CDD6DF",
"@. c #D4D3D0",
"#. c #D1D4D5",
"$. c gray83",
"%. c #D7D7D7",
"&. c #DBD8D5",
"*. c #D9D9D8",
"=. c #DEDBD8",
"-. c #DBDCDB",
";. c #DDDEDE",
":. c #E0DFDC",
">. c #E2E0DD",
",. c #E3E1DE",
"<. c #CCD6E0",
"1. c #CFD8E1",
"2. c #DEE2E5",
"3. c #DDE3EA",
"4. c #E1E1E1",
"5. c #E3E2E1",
"6. c #E3E3E1",
"7. c #E2E2E2",
"8. c #E3E4E3",
"9. c #E6E5E2",
"0. c #E5E6E7",
"q. c #E8E6E4",
"w. c #E9E7E5",
"e. c #EDEBE9",
"r. c #EDECEA",
"t. c #EEEEED",
"y. c #F0EFEE",
"u. c #EBEFF2",
"i. c #F5F4F3",
"p. c #F3F4F5",
"a. c #F4F4F5",
"s. c #F7F7F6",
"d. c #F5F7F9",
"f. c #F6F8F9",
/* pixels */
"                                                                                                                                ",
"                                                                                                                                ",
"                                                                                                                                ",
"                                                                                                                                ",
"                                                                                                                                ",
"                                                                                                                                ",
"                                                                                                                                ",
"                                                                                                                                ",
"                                                                                                                                ",
"                                                                                                                                ",
"                                                                                                                                ",
"                                                                                                                                ",
"                                                                                                                                ",
"                                                                                                                                ",
"                                                                                                                                ",
"                                                                                                                                ",
"                                                                                                                                ",
"                                                                                                                                ",
"                                                                                                                                ",
"                                                                                                                                ",
"                                                                                                                                ",
"                                                                                                                                ",
"                                                                                                                                ",
"                                                                                                                                ",
"                                                                                                                                ",
"                                                                                                                                ",
"                                                                                                                                ",
"                                                                                                                                ",
"                                                                                                                                ",
"                                                                                                                                ",
"                                                                                                                                ",
"                                                                                                                                ",
"                                                                                                                                ",
"                                                                                                                                ",
"                                                                                                                                ",
"                                                                                                                                ",
"                                                                                                                                ",
"                                                                                                                                ",
"                                                                                                                                ",
"                                                                                                                                ",
"                                                                                                                                ",
"                                                                                                                                ",
"                                                                                                                                ",
"                                                                                                                                ",
"                                                                                                                                ",
"                                                                                                                                ",
"                                                                                                                                ",
"                                                                                                                                ",
"                                                                                                                                ",
"                                                                                                                                ",
"                                                                                                                                ",
"                                              + o o o o o o o o o o o o o o o o o +                                             ",
"                                              b l k k k k k k k k k k k k k k k l c                                             ",
"                                            Z Z Z Z V V Z Z Z Z Z Z Z Z s > : 4 N Z Z                                           ",
"                                            Z Z V 2 # - : y V u a p u 4 O . o @ > V Z                                           ",
"                                            _ ' @.L 8 G f P ' Y H j J G 7 < & 5 1 Q !                                           ",
"                                          Z ' =.q.t.4.r.>.&.a.a.,.q.i.>.9.2.I [ #.:._ Z                                         ",
"                                          b ( ` 0.8.9.t.;.9.y.r.-.a.a.$.^ 4.( &.-.4.~ k                                         ",
"                                          & K <. .....<.E u.f.f.X.{ 3... .W { 1.E T U $                                         ",
"                                          = 6 t t A w 8 w f G A f A A A A w t A w w w =                                         ",
"                                          x N N N N N N N N N N N N N N N N N N N N N b                                         ",
"                                                                                                                                ",
"                                                                                                                                ",
"                                                                                                                                "
};
