/* XPM */
static char *_530b6cd3c7a4b66d0edf5e39da92cb6[] = {
/* columns rows colors chars-per-pixel */
"64 64 169 2 ",
"   c None",
".  c gray42",
"X  c gray43",
"o  c #6F6F6F",
"O  c gray44",
"+  c #717171",
"@  c #727272",
"#  c gray45",
"$  c #747474",
"%  c gray46",
"&  c #767676",
"*  c #777777",
"=  c gray47",
"-  c #797979",
";  c gray48",
":  c #7B7B7B",
">  c #7C7C7C",
",  c gray49",
"<  c #7E7E7E",
"1  c gray50",
"2  c #A32717",
"3  c #A62D1E",
"4  c #AE4133",
"5  c #B44F42",
"6  c #BA5D51",
"7  c #C4766C",
"8  c #C5786E",
"9  c #7A8888",
"0  c #7C8A8A",
"q  c #7E9292",
"w  c #808080",
"e  c #818181",
"r  c gray51",
"t  c #838383",
"y  c #848484",
"u  c gray52",
"i  c #868686",
"p  c gray53",
"a  c #818B8B",
"s  c #818D8D",
"d  c #848F8F",
"f  c #888888",
"g  c #898989",
"h  c gray54",
"j  c #8B8B8B",
"k  c gray55",
"l  c #8D8D8D",
"z  c #8E8E8E",
"x  c gray56",
"c  c #899292",
"v  c #8C9797",
"b  c #899898",
"n  c #8A9999",
"m  c #8E9B9B",
"M  c #8D9C9C",
"N  c #909090",
"B  c gray57",
"V  c #929292",
"C  c #939393",
"Z  c gray58",
"A  c #959595",
"S  c gray59",
"D  c #909999",
"F  c #929A9A",
"G  c #929B9B",
"H  c #939B9B",
"J  c #919F9F",
"K  c #939F9F",
"L  c #959E9E",
"P  c #989898",
"I  c gray60",
"U  c #9A9A9A",
"Y  c gray61",
"T  c #9D9D9D",
"R  c gray62",
"E  c #9F9F9F",
"W  c #94A0A0",
"Q  c #97A2A2",
"!  c #A0A0A0",
"~  c gray63",
"^  c #A4A4A4",
"/  c #A5A5A5",
"(  c gray65",
")  c #A7A7A7",
"_  c gray66",
"`  c #A9A9A9",
"'  c #AAAAAA",
"]  c gray68",
"[  c #AEAEAE",
"{  c #B1B1B1",
"}  c #B2B2B2",
"|  c gray70",
" . c gray71",
".. c #B6B6B6",
"X. c #B7B7B7",
"o. c gray72",
"O. c #B9B9B9",
"+. c gray73",
"@. c gray74",
"#. c gray75",
"$. c #CE9088",
"%. c #CF9189",
"&. c #D09289",
"*. c #D0928A",
"=. c #D29890",
"-. c #DAB3AE",
";. c #DEB2AC",
":. c #A2DADA",
">. c #A5DBDB",
",. c #B2DDDD",
"<. c #B3DDDD",
"1. c #B4E5E5",
"2. c #BEE0E0",
"3. c #BFE0E0",
"4. c #BAE4E4",
"5. c #BAE7E7",
"6. c #BFE7E7",
"7. c #B9FFFF",
"8. c #C0C0C0",
"9. c #C3C3C3",
"0. c #C8C8C8",
"q. c #CBCBCB",
"w. c gray80",
"e. c #CDCDCD",
"r. c #CECECE",
"t. c #D2D2D2",
"y. c LightGray",
"u. c gray83",
"i. c #D7D7D7",
"p. c #D8D8D8",
"a. c gray85",
"s. c gray86",
"d. c gray87",
"f. c #DFDFDF",
"g. c #EACFCC",
"h. c #E6D2D0",
"j. c #C0E7E7",
"k. c #C3E7E7",
"l. c #C3FFFF",
"z. c #C4FFFF",
"x. c #C7FFFF",
"c. c #C9FFFF",
"v. c #CFFFFF",
"b. c #D2FFFF",
"n. c #D7FFFF",
"m. c gray88",
"M. c #E1E1E1",
"N. c gray89",
"B. c #E4E4E4",
"V. c gray90",
"C. c #E6E6E6",
"Z. c #E7E7E7",
"A. c gray91",
"S. c #E9E9E9",
"D. c #EAEAEA",
"F. c gray92",
"G. c #EDEAEA",
"H. c #ECECEC",
"J. c #EEEEEE",
"K. c #E3FFFF",
"L. c #ECFFFF",
"P. c gray94",
"I. c #F1F1F1",
"U. c #F4F4F4",
"Y. c gray97",
"T. c #F9F4F3",
"R. c #F9F9F9",
"E. c gray98",
"W. c #FBFBFB",
/* pixels */
"                                                                                                                                ",
"                                                                                                                                ",
"                                                                                                                                ",
"                                                                                                                                ",
"                                                                                                                                ",
"                                                                                                                                ",
"                                                                                                                                ",
"                                                                                                                                ",
"                                                                                                                                ",
"                                                                                                                                ",
"                                                                                                                                ",
"                                                                                                                                ",
"                                                                                                                                ",
"                                                                                                                                ",
"                                                                                                                                ",
"                                                                                                                                ",
"                                                                                                                                ",
"                                                                                                                                ",
"                                                                                                                                ",
"                                                                                                                                ",
"                                                                                                                                ",
"                                                                                                                                ",
"                                                                                                                                ",
"                                                                                                                                ",
"                                                                                                                                ",
"                                                                                                                                ",
"                                                                                                                                ",
"                                                                                                                                ",
"                                                                                                                                ",
"                                                                                                                                ",
"                                                                                                                                ",
"                                                                                                                                ",
"                                                                                                                                ",
"                                                                                                                                ",
"                                                                                                                                ",
"                                                                                                                                ",
"                                                                                                                                ",
"                                                                                                                                ",
"                                                                                                                                ",
"                                                                                                                                ",
"                                                                                                                                ",
"                                                                                                                                ",
"                                                                                                                                ",
"                                                                                                                                ",
"                                                                                                                                ",
"                                                                                                                                ",
"                                        F.d.p.i.d.F.F.F.Z.J.g.3 2 6 E.f.V.V.N.N.p.t.q.0.                                        ",
"                                      J.V.F.V.V.F.G.-.%.%.%.7 2 2 4 &.&.&.=.h.F.V.d.i.y.w.w.                                    ",
"                                    P.F.V.Z.F.V.F.P.Y.E.E.W.;.5 5 7 T.U.P.P.P.P.J.F.V.N.V.V.V.                                  ",
"                                  A.p.E E ) ] ..@.O.o.X.{ ..O.#...P ...._ ..O...] ] { { { O.9.w.                                ",
"                                  r.Q > t t > y j x Z P P ^ ^ 8.N.) Z Z B k k k j u t t u j j B                                 ",
"                                  U t ; ; t t u f x B Z P Y E t.E...k k j k k j t t > > ; t j k                                 ",
"                                    i t y i i i i f j j ) C B ..P.P u k _ j u u u j t u u u u                                   ",
"                                    h f g x x V B B Z ^ P ^ 1 P F.> u _ P ^ Z B k k j u u j B                                   ",
"                                    9 $ 7 9 y y i i f C _ P ^ u p.@ _ P ) B t t t ; ; & ; > t                                   ",
"                                    $ % $ 9 H <.H h h j x ) Z ^ ) P P ) u u t u v ,.s @ & > t                                   ",
"                                    & @ & > K v.Q g j j j j j k B B u j u u u u Q b.m @ @ ; >                                   ",
"                                    & @ d <.5.c.k.<.F j u u u B Z Z u u u j F 2.k.n.6.>.0 & >                                   ",
"                                    & @ s ,.1.l.k.<.F u u j u u j j u j u u L 2.k.L.4.:.9 o ;                                   ",
"                                    & o @ * n c.Q f u j u B j u u u u u u j u u Q K.c o o @ &                                   ",
"                                    & @ & % n z.L 9 9 9 u Z k u j u B u j j u t n 7.q @ o @ &                                   ",
"                                    & o @ % % % > 7 c J j E _ j u P ] u j ^ E u & o @ o @ @ &                                   ",
"                                    ; @ o @ % % - ; ; > > t j u u u t ; > > @ & @ . o @ o o ;                                   ",
"                                                                                                                                "
};
